<?xml version="1.0" encoding="utf-8"?>
<!-- Generator: Adobe Illustrator 18.0.0, SVG Export Plug-In . SVG Version: 6.00 Build 0)  -->
<!DOCTYPE svg PUBLIC "-//W3C//DTD SVG 1.1//EN" "http://www.w3.org/Graphics/SVG/1.1/DTD/svg11.dtd">
<svg version="1.1" id="Layer_1" xmlns="http://www.w3.org/2000/svg" xmlns:xlink="http://www.w3.org/1999/xlink" x="0px" y="0px"
	 viewBox="0 0 900 1400" enable-background="new 0 0 900 1400" xml:space="preserve">
<g>
	<g>
		<path fill="#EE2E31" d="M0,861.5C0,874.4,8.6,883,21.5,883h856.9c12.9,0,21.5-8.6,21.5-21.5v-323c0-12.9-8.6-21.5-21.5-21.5H21.5
			C8.6,517,0,525.6,0,538.5V861.5z"/>
	</g>
	<g enable-background="new    ">
		<path fill="#FFFFFF" d="M225.7,783.4l-15.3-42.7h-58.8l-15,42.7H110l57.5-154.3h27.3l57.5,154.3H225.7z M203.7,719.1l-14.4-41.8
			c-1.1-2.8-2.5-7.2-4.4-13.2c-1.9-6-3.1-10.4-3.8-13.2c-1.9,8.6-4.7,18-8.3,28.3l-13.9,40.1H203.7z"/>
		<path fill="#FFFFFF" d="M309.3,785.5c-14.5,0-25.8-5.3-34-15.8c-8.1-10.5-12.2-25.3-12.2-44.3c0-19.1,4.1-33.9,12.4-44.5
			c8.2-10.6,19.6-15.9,34.2-15.9c15.3,0,26.9,5.6,34.9,16.9h1.3c-1.2-8.3-1.8-14.9-1.8-19.8v-42.4h24.8v163.6h-19.3l-4.3-15.2h-1.2
			C336.1,779.7,324.5,785.5,309.3,785.5z M315.9,765.5c10.2,0,17.6-2.9,22.2-8.6c4.6-5.7,7-15,7.1-27.8v-3.5
			c0-14.6-2.4-25.1-7.1-31.2c-4.8-6.2-12.2-9.3-22.4-9.3c-8.7,0-15.4,3.5-20.1,10.6c-4.7,7-7,17.1-7,30.1c0,12.9,2.3,22.7,6.8,29.5
			C299.9,762.2,306.8,765.5,315.9,765.5z"/>
		<path fill="#FFFFFF" d="M502.2,783.4h-24.8v-71.7c0-8.9-1.7-15.5-5-19.9c-3.4-4.4-8.6-6.6-15.8-6.6c-9.5,0-16.5,3.1-21,9.3
			c-4.5,6.2-6.7,16.5-6.7,31v57.9h-24.7V667.1h19.3l3.5,15.2h1.3c3.2-5.5,7.9-9.8,14-12.8c6.1-3,12.9-4.5,20.2-4.5
			c17.9,0,29.7,6.1,35.5,18.3h1.7c3.4-5.7,8.3-10.2,14.5-13.5c6.2-3.2,13.4-4.8,21.4-4.8c13.9,0,24,3.5,30.3,10.5
			c6.3,7,9.5,17.7,9.5,32.1v75.8h-24.7v-71.7c0-8.9-1.7-15.5-5.1-19.9c-3.4-4.4-8.7-6.6-15.8-6.6c-9.6,0-16.6,3-21.1,9
			c-4.5,6-6.7,15.2-6.7,27.6V783.4z"/>
		<path fill="#FFFFFF" d="M608.6,636.3c0-4.4,1.2-7.8,3.6-10.2c2.4-2.4,5.9-3.6,10.4-3.6c4.3,0,7.7,1.2,10.1,3.6
			c2.4,2.4,3.6,5.8,3.6,10.2c0,4.2-1.2,7.5-3.6,9.9s-5.8,3.6-10.1,3.6c-4.5,0-7.9-1.2-10.4-3.6S608.6,640.5,608.6,636.3z
			 M634.7,783.4H610V667.1h24.7V783.4z"/>
		<path fill="#FFFFFF" d="M772.4,783.4h-24.8v-71.5c0-9-1.8-15.7-5.4-20.1c-3.6-4.4-9.3-6.6-17.2-6.6c-10.4,0-18.1,3.1-22.9,9.3
			c-4.8,6.2-7.3,16.5-7.3,31v57.9h-24.7V667.1h19.3l3.5,15.2h1.3c3.5-5.5,8.5-9.8,14.9-12.8c6.4-3,13.6-4.5,21.4-4.5
			c27.9,0,41.8,14.2,41.8,42.6V783.4z"/>
	</g>
</g>
</svg>
