<?xml version="1.0" encoding="UTF-8" standalone="no"?>
<svg width="128px" height="119px" viewBox="0 0 128 119" version="1.1" xmlns="http://www.w3.org/2000/svg" xmlns:xlink="http://www.w3.org/1999/xlink" xmlns:sketch="http://www.bohemiancoding.com/sketch/ns">
    <!-- Generator: Sketch 3.3.2 (12043) - http://www.bohemiancoding.com/sketch -->
    <title>Group</title>
    <desc>Created with Sketch.</desc>
    <defs></defs>
    <g id="Page-1" stroke="none" stroke-width="1" fill="none" fill-rule="evenodd" sketch:type="MSPage">
        <g id="Confirmation-Copy" sketch:type="MSArtboardGroup" transform="translate(-447.000000, -179.000000)">
            <g id="Group" sketch:type="MSLayerGroup" transform="translate(449.000000, 181.000000)">
                <path d="M25,85 L25,15 C25,6.72 31.715,0 40,0 L100,0 M42.5,25 L70,25 M42.5,40 L70,40 M42.5,55 L70,55 M42.5,70 L70,70 M75,115 L15,115 C6.715,115 0,108.285 0,100 C0,91.715 6.715,85 15,85 L75,85 C66.715,85 60,91.715 60,100 C60,108.285 66.715,115 75,115 C83.28,115 90,108.285 90,100 L90,12.5 C90,5.6 95.59,0 102.5,0 C109.4,0 115,5.6 115,15 L90,15" id="Imported-Layers" stroke="#58595B" stroke-width="3" stroke-linecap="round" stroke-linejoin="round" sketch:type="MSShapeGroup"></path>
                <circle id="Oval-1-Copy" fill="#FFFFFF" sketch:type="MSShapeGroup" cx="98.5" cy="56.5" r="27.5"></circle>
                <circle id="Oval-1" stroke="#58595B" stroke-width="3" fill="#FFFFFF" sketch:type="MSShapeGroup" cx="99" cy="57" r="20"></circle>
                <g id="Line-+-Line" transform="translate(96.000000, 48.000000)" stroke="#58595B" stroke-width="3" sketch:type="MSShapeGroup" stroke-linecap="round" stroke-linejoin="round">
                    <path d="M1.5,10.5 L1.5,0.5" id="Line"></path>
                    <path d="M1.5,10.5 L7.5,10.5" id="Line"></path>
                </g>
            </g>
        </g>
    </g>
</svg>