<?xml version="1.0" encoding="utf-8"?>
<!-- Generator: Adobe Illustrator 18.0.0, SVG Export Plug-In . SVG Version: 6.00 Build 0)  -->
<!DOCTYPE svg PUBLIC "-//W3C//DTD SVG 1.1//EN" "http://www.w3.org/Graphics/SVG/1.1/DTD/svg11.dtd">
<svg version="1.1" id="Layer_1" xmlns="http://www.w3.org/2000/svg" xmlns:xlink="http://www.w3.org/1999/xlink" x="0px" y="0px"
	 viewBox="-0.7 19.7 101.3 55.6" enable-background="new -0.7 19.7 101.3 55.6" xml:space="preserve">
<path fill="#83BCE6" stroke="#83BCE6" stroke-width="6" stroke-miterlimit="10" d="M49.6,35.8c-6.7,0-11.7,5-11.7,11.7
	s5,11.7,11.7,11.7s11.7-5.1,11.7-11.7S56.1,35.8,49.6,35.8z M53,47.9c-2,0-3.5-1.5-3.5-3.5s2.4-2.3,2.7-0.3c0.6,4.3,0.9-0.1,0.9,1.9
	C53.5,47.9,54.9,47.9,53,47.9z"/>
<path fill="none" stroke="#83BCE6" stroke-width="6" stroke-miterlimit="10" d="M96.6,47.5c-49.8,55.9-93.5,0-93.5,0
	S46.9-8.3,96.6,47.5z"/>
<circle fill="none" stroke="#83BCE6" stroke-width="6" stroke-miterlimit="10" cx="49.6" cy="47.5" r="22.5"/>
<circle fill="#383A41" cx="49.6" cy="47.5" r="5.9"/>
</svg>
