<?xml version="1.0" encoding="UTF-8" standalone="no"?>
<svg width="26px" height="17px" viewBox="0 0 26 17" version="1.1" xmlns="http://www.w3.org/2000/svg" xmlns:xlink="http://www.w3.org/1999/xlink" xmlns:sketch="http://www.bohemiancoding.com/sketch/ns">
    <!-- Generator: Sketch 3.3.2 (12043) - http://www.bohemiancoding.com/sketch -->
    <title>Untitled</title>
    <desc>Created with Sketch.</desc>
    <defs></defs>
    <g id="Page-1" stroke="none" stroke-width="1" fill="none" fill-rule="evenodd" sketch:type="MSPage">
        <g id="11-users_account-group-2" sketch:type="MSLayerGroup" transform="translate(1.000000, 1.000000)" stroke="#4A4A4A" stroke-linejoin="round">
            <path d="M6.25176316,14.6052632 L12.2367632,14.6052632 L12.2367632,11.0526316 C12.2367632,10.6578947 9.86834211,9.47368421 7.89465789,8.68421053 L7.89465789,7.10526316 C7.89465789,7.10526316 8.68413158,6.82894737 8.68413158,5.13157895 C9.23281579,5.13157895 9.47360526,3.55263158 8.70939474,3.55263158 C8.70939474,3.38526316 9.31413158,2.52 9.07886842,1.57894737 C8.68413158,-5.96744876e-14 4.73676316,-5.96744876e-14 4.34202632,1.57894737 C2.68018421,1.23868421 3.94728947,3.32526316 3.94728947,3.55263158 C3.15781579,3.55263158 3.39781579,5.13157895 3.94728947,5.13157895 C3.94728947,6.82894737 4.73676316,7.10526316 4.73676316,7.10526316 L4.73676316,8.68421053 C2.76307895,9.47368421 0.394657895,10.6578947 0.394657895,11.0526316 L0.394657895,14.6052632 L6.25176316,14.6052632 L6.25176316,14.6052632 Z" id="Stroke-1" sketch:type="MSShapeGroup"></path>
            <path d="M14.2105263,14.6052632 L18.5526316,14.6052632 L18.5526316,11.0526316 C18.5526316,10.6578947 16.5789474,10.1052632 15,9.47368421 L15,8.28947368 C15,8.28947368 15.7894737,8.06921053 15.7894737,6.71052632 C16.2292105,6.71052632 16.3997368,5.13157895 15.7894737,5.13157895 C15.7894737,4.99815789 16.4297368,4.28921053 16.1842105,3.55263158 C15.7894737,2.36842105 12.6315789,2.36842105 12.2368421,3.55263158 C10.9057895,3.28026316 11.8421053,4.95 11.8421053,5.13157895 C11.2105263,5.13157895 11.4023684,6.71052632 11.8421053,6.71052632 C11.8421053,8.06921053 12.6315789,8.28947368 12.6315789,8.28947368 L12.6315789,9.07894737" id="Stroke-3" stroke-linecap="round" sketch:type="MSShapeGroup"></path>
            <path d="M20.7458283,14.6044733 L24.3603736,14.6044733 L24.3603736,11.647118 C24.3603736,11.318523 22.7173985,10.85849 21.4030184,10.3327379 L21.4030184,9.34695283 C21.4030184,9.34695283 22.0602084,9.1635968 22.0602084,8.03257272 C22.4262633,8.03257272 22.5682163,6.71819261 22.0602084,6.71819261 C22.0602084,6.60712749 22.5931895,6.01697082 22.3888034,5.4038125 C22.0602084,4.41802741 19.4314482,4.41802741 19.1028532,5.4038125 C17.9948307,5.17708193 18.7742581,6.56703889 18.7742581,6.71819261 C18.2485061,6.71819261 18.4082033,8.03257272 18.7742581,8.03257272 C18.7742581,9.1635968 19.4314482,9.34695283 19.4314482,9.34695283 L19.4314482,10.0041429" id="Stroke-3-Copy" stroke-linecap="round" sketch:type="MSShapeGroup"></path>
        </g>
    </g>
</svg>