<?xml version="1.0" encoding="utf-8"?>
<!-- Generator: Adobe Illustrator 18.0.0, SVG Export Plug-In . SVG Version: 6.00 Build 0)  -->
<!DOCTYPE svg PUBLIC "-//W3C//DTD SVG 1.1//EN" "http://www.w3.org/Graphics/SVG/1.1/DTD/svg11.dtd">
<svg version="1.1" id="Layer_1" xmlns:sketch="http://www.bohemiancoding.com/sketch/ns"
	 xmlns="http://www.w3.org/2000/svg" xmlns:xlink="http://www.w3.org/1999/xlink" x="0px" y="0px" viewBox="0 0 623 213"
	 enable-background="new 0 0 623 213" xml:space="preserve">
<title>Group</title>
<desc>Created with Sketch.</desc>
<g id="Page-1" sketch:type="MSPage">
	<g id="Empty-State-after-create-new-table" transform="translate(44.000000, 649.000000)" sketch:type="MSLayerGroup">
		<g id="Group" transform="translate(40.000000, 142.000000)">
			<text transform="matrix(1 0 0 1 55.1992 -612)" fill="#FF1D25" font-family="'OpenSans'" font-size="16">Click on Create New to start collecting, cleaning and sharing data.</text>
			<text transform="matrix(1 0 0 1 540.4414 -612)" fill="#FF1D25" font-family="'OpenSans'" font-size="16"> </text>
			<text transform="matrix(1 0 0 1 86.0195 -582)" fill="#FF1D25" font-family="'OpenSans'" font-size="16">Importing a table will automatically create a form for you</text>
			<path id="Line" sketch:type="MSShapeGroup" fill="none" stroke="#FFA7AA" stroke-width="2" stroke-linecap="square" d="M50-617.1
				c0,0-50.7-2.4-90.9-37.7S-72.2-789-72.2-789"/>
			<path id="Line_1_" sketch:type="MSShapeGroup" fill="none" stroke="#FFA7AA" stroke-width="2" stroke-linecap="square" d="
				M-73.5-788.5l-9,22"/>
			<path id="Line_2_" sketch:type="MSShapeGroup" fill="none" stroke="#FFA7AA" stroke-width="2" stroke-linecap="square" d="
				M-72.5-789.5l9,24"/>
			<g id="Imported-Layers" transform="translate(286.000000, 61.000000)" sketch:type="MSShapeGroup">
				<path id="Fill-1" fill="#FF1D25" d="M-21.7-755C-21.6-755-21.6-755-21.7-755L-21.7-755C-21.6-755-21.6-755-21.7-755
					 M-21.8-755.2L-21.8-755.2L-21.8-755.2 M-21.8-755.2L-21.8-755.2L-21.8-755.2 M-21.8-756.1c-0.1,0.1-0.1,0.3-0.1,0.5
					c0,0.2,0,0.3,0.1,0.4C-21.9-755.5-21.9-755.9-21.8-756.1 M-21.8-756.1C-21.8-756.1-21.8-756.1-21.8-756.1L-21.8-756.1
					 M-21.7-756.3L-21.7-756.3L-21.7-756.3 M-21.7-756.3C-21.7-756.3-21.7-756.3-21.7-756.3C-21.7-756.3-21.7-756.3-21.7-756.3
					 M-21.6-756.4c0,0-0.1,0.1-0.1,0.1C-21.7-756.4-21.6-756.4-21.6-756.4L-21.6-756.4 M8.4-756.7h-26.7l-1,1l1,1H8.4
					c0.6,0,1-0.5,1-1C9.4-756.3,9-756.7,8.4-756.7"/>
				<path id="Fill-2" fill="#FF1D25" d="M28.2-745.3c0,0.3-0.1,0.5-0.3,0.7C28.1-744.7,28.2-745,28.2-745.3 M27.9-746
					c0.2,0.2,0.3,0.4,0.3,0.7C28.2-745.5,28.1-745.8,27.9-746 M27.9-746C27.9-746,27.9-746,27.9-746C27.9-746,27.9-746,27.9-746
					 M24.7-746.3H-2.1c-0.6,0-1,0.5-1,1c0,0.6,0.5,1,1,1h26.7l1-1L24.7-746.3"/>
				<path id="Fill-3" fill="#FF1D25" d="M-12.5-765.1c-0.3,0-0.5,0.1-0.7,0.3l-8.3,8.3l0,0c0,0-0.1,0.1-0.1,0.1c0,0,0,0,0,0l0,0v0
					c0,0.1-0.1,0.1-0.1,0.2c0,0,0,0,0,0c0,0,0,0,0,0c-0.1,0.3-0.1,0.6,0,0.9l0,0v0l0,0c0,0.1,0.1,0.1,0.1,0.2c0,0,0,0.1,0.1,0.1l0,0
					l8.3,8.3c0.2,0.2,0.5,0.3,0.7,0.3c0.3,0,0.5-0.1,0.7-0.3c0.4-0.4,0.4-1.1,0-1.5l-7.6-7.6l7.6-7.6c0.4-0.4,0.4-1.1,0-1.5
					C-12-765-12.2-765.1-12.5-765.1"/>
				<path id="Fill-4" fill="#FF1D25" d="M18.8-754.6c-0.3,0-0.5,0.1-0.7,0.3c-0.4,0.4-0.4,1.1,0,1.5l7.6,7.6l-7.6,7.6
					c-0.4,0.4-0.4,1.1,0,1.5c0.2,0.2,0.5,0.3,0.7,0.3c0.3,0,0.5-0.1,0.7-0.3l8.4-8.3c0,0,0,0,0,0c0.2-0.2,0.3-0.4,0.3-0.7v0v0
					c0-0.3-0.1-0.5-0.3-0.7c0,0,0,0,0,0c0,0,0,0,0,0l-8.4-8.3C19.4-754.5,19.1-754.6,18.8-754.6"/>
				<path id="Fill-5" fill="#FF1D25" d="M-34.4-772.1L-34.4-772.1L-34.4-772.1 M-51-789.1c0.3,0.2,0.4,0.6,0.4,1v3.2l11.5,11.5h3.2
					c0.4,0,0.7,0.1,0.9,0.4L-51-789.1C-50.9-789.1-50.9-789.1-51-789.1 M-51.9-789.5L-51.9-789.5L-51.9-789.5h-29.6
					c-0.4,0-0.7,0.1-0.9,0.4c-0.2,0.2-0.4,0.6-0.4,0.9v61.6c0,0.4,0.1,0.7,0.4,0.9c0.2,0.2,0.6,0.4,0.9,0.4h45.7
					c0.4,0,0.7-0.1,1-0.4c0.2-0.3,0.4-0.6,0.4-0.9h-1.3v-1.3v1.3h1.3v-45.6c0,0.7-0.6,1.3-1.3,1.3h-1.3v42.9h-43v-59h26.9v-1.3
					C-53.2-788.9-52.6-789.5-51.9-789.5"/>
				<path id="Fill-6" fill="#FF1D25" d="M-51.9-789.5L-51.9-789.5c-0.7,0-1.3,0.6-1.3,1.3v16.1c0,0.4,0.1,0.7,0.4,0.9
					c0.2,0.2,0.6,0.4,0.9,0.4h16.1c0.7,0,1.3-0.6,1.3-1.3v0c0-0.4-0.2-0.7-0.4-0.9c-0.2-0.2-0.6-0.4-0.9-0.4h-14.8v-14.7
					c0-0.4-0.2-0.7-0.4-1C-51.2-789.3-51.5-789.5-51.9-789.5L-51.9-789.5"/>
				<path id="Fill-7" fill="#FF1D25" d="M-58.6-770.7h-12.1c-0.7,0-1.3,0.6-1.3,1.3s0.6,1.3,1.3,1.3h12.1c0.7,0,1.3-0.6,1.3-1.3
					S-57.8-770.7-58.6-770.7"/>
				<path id="Fill-8" fill="#FF1D25" d="M-46.5-762.7h-24.2c-0.7,0-1.3,0.6-1.3,1.3s0.6,1.3,1.3,1.3h24.2c0.7,0,1.3-0.6,1.3-1.3
					S-45.7-762.7-46.5-762.7"/>
				<path id="Fill-9" fill="#FF1D25" d="M-46.5-754.6h-24.2c-0.7,0-1.3,0.6-1.3,1.3c0,0.7,0.6,1.3,1.3,1.3h24.2
					c0.7,0,1.3-0.6,1.3-1.3C-45.1-754-45.7-754.6-46.5-754.6"/>
				<path id="Fill-10" fill="#FF1D25" d="M-46.5-746.6h-24.2c-0.7,0-1.3,0.6-1.3,1.3s0.6,1.3,1.3,1.3h24.2c0.7,0,1.3-0.6,1.3-1.3
					S-45.7-746.6-46.5-746.6"/>
				<path id="Fill-11" fill="#FF1D25" d="M-46.5-738.6h-24.2c-0.7,0-1.3,0.6-1.3,1.3s0.6,1.3,1.3,1.3h24.2c0.7,0,1.3-0.6,1.3-1.3
					S-45.7-738.6-46.5-738.6"/>
				<path id="Fill-12" fill="#FFA5A8" d="M42.3-764.3h11.3v-10.8H42.3V-764.3z M54.9-764.3h12.9v-10.8H54.9V-764.3z M69.1-764.3
					h12.6v-10.8H69.1V-764.3z M93.6-775.2H83.1v10.8h10.5V-775.2L93.6-775.2z"/>
				<path id="Fill-13" fill="#FF1D25" d="M53.6-762.8H42.3H53.6 M67.8-762.8H54.9H67.8 M81.8-762.8H69.1H81.8 M93.6-762.8H83.1H93.6
					 M95.2-763.6L95.2-763.6l0,0.1L95.2-763.6 M67.8-764.3H54.9H67.8 M81.8-764.3H69.1H81.8 M93.6-764.3H83.1H93.6 M53.6-775.2H42.3
					v10.8h11.3H42.3v-10.8H53.6 M67.8-775.2H54.9H67.8 M81.8-775.2H69.1H81.8 M93.6-775.2H83.1H93.6 M94.4-776.7H41.6l-0.5,0.2
					l-0.2,0.5v12.4l0-12.4l0.2-0.5l0.5-0.2H94.4l0.5,0.2l0.2,0.5v12.4h0V-776l-0.2-0.5L94.4-776.7"/>
				<path id="Fill-14" fill="#FF1D25" d="M95.2-751.2c0,0.4-0.3,0.8-0.8,0.8h-0.8v10.8h0.8c0.4,0,0.8,0.3,0.8,0.8V-751.2
					 M95.2-763.6c0,0.4-0.3,0.8-0.8,0.8h-0.8v10.8h0.8c0.4,0,0.8,0.3,0.8,0.8V-763.6 M94.4-776.7H41.6l-0.5,0.2l-0.2,0.5v49.5
					L41-726l0.5,0.2h52.8l0.5-0.2l0.2-0.5h-0.8v-0.8v0.8h0.8v-12.4c0,0.4-0.3,0.8-0.8,0.8h-0.8v10.8H83.1v0.8c0,0.4-0.3,0.7-0.7,0.7
					c-0.4,0-0.7-0.3-0.7-0.7v-0.8H69.1v0.8c0,0.4-0.3,0.7-0.7,0.7c-0.4,0-0.7-0.3-0.7-0.7v-0.8H54.9v0.8c0,0.4-0.3,0.7-0.7,0.7
					c-0.4,0-0.7-0.3-0.7-0.7v-0.8H42.3v-10.8h-0.8c-0.4,0-0.8-0.3-0.8-0.8c0-0.4,0.3-0.8,0.8-0.8h0.8v-10.8h-0.8
					c-0.4,0-0.8-0.3-0.8-0.8c0-0.4,0.3-0.8,0.8-0.8h0.8v-10.8l-0.8,0c-0.4,0-0.8-0.3-0.8-0.8c0-0.4,0.3-0.8,0.8-0.8h0.8v-10.8h11.3
					v-0.8c0-0.4,0.3-0.7,0.7-0.7c0.4,0,0.7,0.3,0.7,0.7v0.8h12.9v-0.8c0-0.4,0.3-0.7,0.7-0.7c0.4,0,0.7,0.3,0.7,0.7v0.8h12.6v-0.8
					c0-0.4,0.3-0.7,0.7-0.7c0.4,0,0.7,0.3,0.7,0.7v0.8h10.5v10.8h0.8c0.4,0,0.8,0.3,0.8,0.8V-776l-0.2-0.5L94.4-776.7"/>
				<path id="Fill-15" fill="#FF1D25" d="M53.6-764.3h-12c-0.4,0-0.8,0.3-0.8,0.8c0,0.4,0.3,0.8,0.8,0.8h12V-764.3L53.6-764.3z
					 M54.9-762.8h12.9v-1.5H54.9V-762.8z M69.1-762.8h12.6v-1.5H69.1V-762.8z M94.4-764.3H83.1v1.5h11.3c0.4,0,0.8-0.3,0.8-0.8
					C95.2-764,94.8-764.3,94.4-764.3L94.4-764.3z"/>
				<path id="Fill-16" fill="#FF1D25" d="M53.6-752h-12c-0.4,0-0.8,0.3-0.8,0.8c0,0.4,0.3,0.8,0.8,0.8h12V-752L53.6-752z
					 M54.9-750.5h12.9v-1.5H54.9V-750.5z M69.1-750.5h12.6v-1.5H69.1V-750.5z M94.4-752H83.1v1.5h11.3c0.4,0,0.8-0.3,0.8-0.8
					C95.2-751.6,94.8-752,94.4-752L94.4-752z"/>
				<path id="Fill-17" fill="#FF1D25" d="M53.6-739.6h-12c-0.4,0-0.8,0.3-0.8,0.8c0,0.4,0.3,0.8,0.8,0.8h12V-739.6L53.6-739.6z
					 M54.9-738.1h12.9v-1.5H54.9V-738.1z M69.1-738.1h12.6v-1.5H69.1V-738.1z M94.4-739.6H83.1v1.5h11.3c0.4,0,0.8-0.3,0.8-0.8
					C95.2-739.3,94.8-739.6,94.4-739.6L94.4-739.6z"/>
				<path id="Fill-18" fill="#FF1D25" d="M54.3-776.6c-0.4,0-0.7,0.3-0.7,0.7v49.5c0,0.4,0.3,0.7,0.7,0.7c0.4,0,0.7-0.3,0.7-0.7
					V-776C54.9-776.3,54.6-776.6,54.3-776.6"/>
				<path id="Fill-19" fill="#FF1D25" d="M68.5-776.6c-0.4,0-0.7,0.3-0.7,0.7v49.5c0,0.4,0.3,0.7,0.7,0.7c0.4,0,0.7-0.3,0.7-0.7
					V-776C69.1-776.3,68.8-776.6,68.5-776.6"/>
				<path id="Fill-20" fill="#FF1D25" d="M82.4-776.6c-0.4,0-0.7,0.3-0.7,0.7v49.5c0,0.4,0.3,0.7,0.7,0.7c0.4,0,0.7-0.3,0.7-0.7
					V-776C83.1-776.3,82.8-776.6,82.4-776.6"/>
			</g>
			<text transform="matrix(1 0 0 1 203 -643)" fill="#FF1D25" font-family="'OpenSans'" font-size="16">Forms</text>
			<text transform="matrix(1 0 0 1 336 -644)" fill="#FF1D25" font-family="'OpenSans'" font-size="16">Data</text>
		</g>
	</g>
</g>
</svg>
