<?xml version="1.0" encoding="UTF-8" standalone="no"?>
<svg width="15px" height="15px" viewBox="0 0 15 15" version="1.1" xmlns="http://www.w3.org/2000/svg" xmlns:xlink="http://www.w3.org/1999/xlink" xmlns:sketch="http://www.bohemiancoding.com/sketch/ns">
    <!-- Generator: Sketch 3.3.2 (12043) - http://www.bohemiancoding.com/sketch -->
    <title>Imported Layers</title>
    <desc>Created with Sketch.</desc>
    <defs></defs>
    <g id="Page-1" stroke="none" stroke-width="1" fill="none" fill-rule="evenodd" sketch:type="MSPage">
        <g id="Table-States-Copy" sketch:type="MSArtboardGroup" transform="translate(-174.000000, -303.000000)" stroke="#4D4D4D" stroke-linecap="round" stroke-linejoin="round">
            <path d="M186.523167,311.583333 L188.416667,311.583333 L188.416667,309.833333 L186.522583,309.833333 C186.400667,309.327583 186.201167,308.561083 185.9375,308.128833 L187.276833,306.790083 L185.626583,305.139833 L184.286667,306.479167 C183.855,306.216083 183.089083,306.016583 182.583333,305.894667 L182.583333,304 L180.833333,304 L180.833333,305.894667 C180.327583,306.016583 179.561083,306.216083 179.129417,306.479167 L177.7895,305.139833 L176.13925,306.790083 L177.479167,308.129417 C177.2155,308.561083 177.016,309.327583 176.8935,309.833333 L175,309.833333 L175,311.583333 L176.8935,311.583333 C177.016,312.089083 177.2155,312.856167 177.479167,313.28725 L176.13925,314.627167 L177.7895,316.276833 L179.128833,314.936333 C179.561083,315.201167 180.327583,315.400667 180.833333,315.523167 L180.833333,317.416667 L182.583333,317.416667 L182.583333,315.523167 C183.089083,315.400667 183.855583,315.201167 184.286667,314.9375 L185.627167,316.276833 L187.276833,314.627167 L185.9375,313.28725 C186.201167,312.856167 186.400667,312.089083 186.523167,311.583333 L186.523167,311.583333 Z M184.333333,310.708333 C184.333333,312.1585 183.157917,313.333333 181.708333,313.333333 C180.25875,313.333333 179.083333,312.1585 179.083333,310.708333 C179.083333,309.25875 180.25875,308.083333 181.708333,308.083333 C183.157917,308.083333 184.333333,309.25875 184.333333,310.708333 L184.333333,310.708333 Z" id="Imported-Layers" sketch:type="MSShapeGroup"></path>
        </g>
    </g>
</svg>