<?xml version="1.0" encoding="UTF-8" standalone="no"?>
<svg width="125px" height="161px" viewBox="0 0 125 161" version="1.1" xmlns="http://www.w3.org/2000/svg" xmlns:xlink="http://www.w3.org/1999/xlink" xmlns:sketch="http://www.bohemiancoding.com/sketch/ns">
    <!-- Generator: Sketch 3.3.2 (12043) - http://www.bohemiancoding.com/sketch -->
    <title>Imported Layers</title>
    <desc>Created with Sketch.</desc>
    <defs></defs>
    <g id="Page-1" stroke="none" stroke-width="1" fill="none" fill-rule="evenodd" sketch:type="MSPage">
        <g id="Empty-States" sketch:type="MSArtboardGroup" transform="translate(-81.000000, -406.000000)">
            <g id="Imported-Layers" sketch:type="MSLayerGroup" transform="translate(82.000000, 407.000000)">
                <path d="M103.7415,138.6548 L0.9765,138.6548 L0.9765,0.258971429 L67.4715,0.258971429 L103.7415,36.3618286 L103.7415,138.6548 L103.7415,138.6548 Z M67.4715,0.258971429 L67.4715,36.3618286 L103.7415,36.3618286 L67.4715,0.258971429 Z M19.1115,48.3961143 L85.60805,48.3961143 L85.60805,120.603371 L19.1115,120.603371 L19.1115,48.3961143 Z M19.1115,66.4475429 L85.6065,66.4475429 L19.1115,66.4475429 Z M19.1115,84.5005143 L85.6065,84.5005143 L19.1115,84.5005143 Z M19.1115,102.551943 L85.6065,102.551943 L19.1115,102.551943 Z M43.2915,48.3961143 L43.2915,120.603371 L43.2915,48.3961143 Z" id="Stroke-1" stroke="#FFC8CA" stroke-width="2.4" stroke-linecap="round" stroke-linejoin="round" fill="#FFFFFF" sketch:type="MSShapeGroup"></path>
                <path d="M123.8388,126.998514 C123.8388,144.989771 109.18665,159.575943 91.11055,159.575943 C73.036,159.575943 58.3823,144.989771 58.3823,126.998514 C58.3823,109.005714 73.036,94.4210857 91.11055,94.4210857 C109.18665,94.4210857 123.8388,109.005714 123.8388,126.998514" id="Fill-2" fill="#FFFFFF" sketch:type="MSShapeGroup"></path>
                <path d="M91.1059,153.171543 C76.58395,153.171543 64.81015,141.455086 64.81015,126.995429 C64.81015,112.535771 76.58395,100.820857 91.1059,100.820857 C105.62785,100.820857 117.4032,112.535771 117.4032,126.995429 C117.4032,141.455086 105.62785,153.171543 91.1059,153.171543 Z" id="Fill-3" fill="#FFFFFF" sketch:type="MSShapeGroup"></path>
                <path d="M117.4032,126.995429 C117.4032,141.455086 105.62785,153.171543 91.1059,153.171543 C76.58395,153.171543 64.81015,141.455086 64.81015,126.995429 C64.81015,112.535771 76.58395,100.820857 91.1059,100.820857 C105.62785,100.820857 117.4032,112.535771 117.4032,126.995429 L117.4032,126.995429 Z" id="Stroke-4" stroke="#FFC8CA" stroke-width="2.3" stroke-linejoin="round" sketch:type="MSShapeGroup"></path>
                <path d="M80.26055,137.7908 L101.9559,116.204686 M101.9559,137.7908 L80.26055,116.204686" id="Stroke-5" stroke="#FFC8CA" stroke-width="2.3" stroke-linecap="round" stroke-linejoin="round" sketch:type="MSShapeGroup"></path>
            </g>
        </g>
    </g>
</svg>