<?xml version="1.0" encoding="utf-8"?>
<!-- Generator: Adobe Illustrator 18.0.0, SVG Export Plug-In . SVG Version: 6.00 Build 0)  -->
<!DOCTYPE svg PUBLIC "-//W3C//DTD SVG 1.1//EN" "http://www.w3.org/Graphics/SVG/1.1/DTD/svg11.dtd">
<svg version="1.1" id="Layer_1" xmlns:sketch="http://www.bohemiancoding.com/sketch/ns"
	 xmlns="http://www.w3.org/2000/svg" xmlns:xlink="http://www.w3.org/1999/xlink" x="0px" y="0px" viewBox="0 0 807 234"
	 enable-background="new 0 0 807 234" xml:space="preserve">
<g id="Page-1_1_" sketch:type="MSPage">
	<g id="Empty-States_1_" transform="translate(-41.000000, -389.000000)" sketch:type="MSArtboardGroup">
		<g id="First-Empty-State_1_" transform="translate(40.000000, 160.000000)" sketch:type="MSLayerGroup">
			<g id="Cell-Highlighting" transform="translate(1.000000, 229.000000)" sketch:type="MSShapeGroup">
				<path id="Selected-Line" fill="#F2F2F2" d="M0,87h806.1v30H0V87z"/>
				<path id="Selected-Line-Copy" fill="#F2F2F2" d="M0.9,30H807v30H0.9V30z"/>
				<path id="Selected-Line-Copy-2" fill="#F2F2F2" d="M0.9,145H807v30H0.9V145z"/>
				<path id="Selected-Line-Copy-3" fill="#F2F2F2" d="M0.9,203H807v30H0.9V203z"/>
			</g>
		</g>
	</g>
</g>
<title>Cells</title>
<desc>Created with Sketch.</desc>
<g id="Page-1" sketch:type="MSPage">
	<g id="Empty-States" transform="translate(-41.000000, -360.000000)" sketch:type="MSArtboardGroup">
		<g id="First-Empty-State" transform="translate(40.000000, 160.000000)" sketch:type="MSLayerGroup">
			<g id="Cells" transform="translate(1.000000, 200.472579)" sketch:type="MSShapeGroup">
				<rect id="Rectangle-7" x="0" y="0" fill="none" stroke="#CCCCCC" width="146.7" height="30"/>
				<rect id="Rectangle-7-Copy" x="0" y="29" fill="none" stroke="#CCCCCC" width="146.7" height="30"/>
				<rect id="Rectangle-7-Copy-2" x="0" y="58" fill="none" stroke="#CCCCCC" width="146.7" height="30"/>
				<rect id="Rectangle-7-Copy-3" x="0" y="87" fill="none" stroke="#CCCCCC" width="146.7" height="30"/>
				<g id="Cells-Copy-13" transform="translate(0.000000, 116.000000)">
					<rect id="Rectangle-7_1_" x="0" y="0" fill="none" stroke="#CCCCCC" width="146.7" height="30"/>
					<rect id="Rectangle-7-Copy_1_" x="0" y="29" fill="none" stroke="#CCCCCC" width="146.7" height="30"/>
					<rect id="Rectangle-7-Copy-2_1_" x="0" y="58" fill="none" stroke="#CCCCCC" width="146.7" height="30"/>
					<rect id="Rectangle-7-Copy-3_1_" x="0" y="87" fill="none" stroke="#CCCCCC" width="146.7" height="30"/>
				</g>
				<g id="Cells-Copy" transform="translate(145.853896, 0.000000)">
					<rect id="Rectangle-7_2_" x="0" y="0" fill="none" stroke="#CCCCCC" width="115.3" height="30"/>
					<rect id="Rectangle-7-Copy_2_" x="0" y="29" fill="none" stroke="#CCCCCC" width="115.3" height="30"/>
					<rect id="Rectangle-7-Copy-2_2_" x="0" y="58" fill="none" stroke="#CCCCCC" width="115.3" height="30"/>
					<rect id="Rectangle-7-Copy-3_2_" x="0" y="87" fill="none" stroke="#CCCCCC" width="115.3" height="30"/>
				</g>
				<g id="Cells-Copy-2" transform="translate(260.266234, 0.000000)">
					<rect id="Rectangle-7_3_" x="0" y="0" fill="none" stroke="#CCCCCC" width="131" height="30"/>
					<rect id="Rectangle-7-Copy_3_" x="0" y="29" fill="none" stroke="#CCCCCC" width="131" height="30"/>
					<rect id="Rectangle-7-Copy-2_3_" x="0" y="58" fill="none" stroke="#CCCCCC" width="131" height="30"/>
					<rect id="Rectangle-7-Copy-3_3_" x="0" y="87" fill="none" stroke="#CCCCCC" width="131" height="30"/>
				</g>
				<g id="Cells-Copy-3" transform="translate(390.399351, 0.000000)">
					<rect id="Rectangle-7_4_" x="0" y="0" fill="none" stroke="#CCCCCC" width="104.8" height="30"/>
					<rect id="Rectangle-7-Copy_4_" x="0" y="29" fill="none" stroke="#CCCCCC" width="104.8" height="30"/>
					<rect id="Rectangle-7-Copy-2_4_" x="0" y="58" fill="none" stroke="#CCCCCC" width="104.8" height="30"/>
					<rect id="Rectangle-7-Copy-3_4_" x="0" y="87" fill="none" stroke="#CCCCCC" width="104.8" height="30"/>
				</g>
				<g id="Cells-Copy-4" transform="translate(494.331169, 0.000000)">
					<rect id="Rectangle-7_5_" x="0" y="0" fill="none" stroke="#CCCCCC" width="104.8" height="30"/>
					<rect id="Rectangle-7-Copy_5_" x="0" y="29" fill="none" stroke="#CCCCCC" width="104.8" height="30"/>
					<rect id="Rectangle-7-Copy-2_5_" x="0" y="58" fill="none" stroke="#CCCCCC" width="104.8" height="30"/>
					<rect id="Rectangle-7-Copy-3_5_" x="0" y="87" fill="none" stroke="#CCCCCC" width="104.8" height="30"/>
				</g>
				<g id="Cells-Copy-5" transform="translate(598.262987, 0.000000)">
					<rect id="Rectangle-7_6_" x="0" y="0" fill="none" stroke="#CCCCCC" width="104.8" height="30"/>
					<rect id="Rectangle-7-Copy_6_" x="0" y="29" fill="none" stroke="#CCCCCC" width="104.8" height="30"/>
					<rect id="Rectangle-7-Copy-2_6_" x="0" y="58" fill="none" stroke="#CCCCCC" width="104.8" height="30"/>
					<rect id="Rectangle-7-Copy-3_6_" x="0" y="87" fill="none" stroke="#CCCCCC" width="104.8" height="30"/>
				</g>
				<g id="Cells-Copy-6" transform="translate(702.194805, 0.000000)">
					<rect id="Rectangle-7_7_" x="0" y="0" fill="none" stroke="#CCCCCC" width="104.8" height="30"/>
					<rect id="Rectangle-7-Copy_7_" x="0" y="29" fill="none" stroke="#CCCCCC" width="104.8" height="30"/>
					<rect id="Rectangle-7-Copy-2_7_" x="0" y="58" fill="none" stroke="#CCCCCC" width="104.8" height="30"/>
					<rect id="Rectangle-7-Copy-3_7_" x="0" y="87" fill="none" stroke="#CCCCCC" width="104.8" height="30"/>
				</g>
				<g id="Cells-Copy-12" transform="translate(145.853896, 116.000000)">
					<rect id="Rectangle-7_8_" x="0" y="0" fill="none" stroke="#CCCCCC" width="115.3" height="30"/>
					<rect id="Rectangle-7-Copy_8_" x="0" y="29" fill="none" stroke="#CCCCCC" width="115.3" height="30"/>
					<rect id="Rectangle-7-Copy-2_8_" x="0" y="58" fill="none" stroke="#CCCCCC" width="115.3" height="30"/>
					<rect id="Rectangle-7-Copy-3_8_" x="0" y="87" fill="none" stroke="#CCCCCC" width="115.3" height="30"/>
				</g>
				<g id="Cells-Copy-7" transform="translate(260.266234, 116.500000)">
					<rect id="Error-Cell-3" x="0" y="0" fill="none" stroke="#CCCCCC" width="131" height="30"/>
					<rect id="Error-Cell-2" x="0" y="29" fill="none" stroke="#CCCCCC" width="131" height="30"/>
					<rect id="Error-Cell" x="0" y="58" fill="none" stroke="#CCCCCC" width="131" height="30"/>
					<rect id="Error-Cell-1" x="0" y="87" fill="none" stroke="#CCCCCC" width="131" height="30"/>
				</g>
				<g id="Cells-Copy-8" transform="translate(390.399351, 116.500000)">
					<rect id="Rectangle-7_9_" x="0" y="0" fill="none" stroke="#CCCCCC" width="104.8" height="30"/>
					<rect id="Rectangle-7-Copy_9_" x="0" y="29" fill="none" stroke="#CCCCCC" width="104.8" height="30"/>
					<rect id="Rectangle-7-Copy-2_9_" x="0" y="58" fill="none" stroke="#CCCCCC" width="104.8" height="30"/>
					<rect id="Rectangle-7-Copy-3_9_" x="0" y="87" fill="none" stroke="#CCCCCC" width="104.8" height="30"/>
				</g>
				<g id="Cells-Copy-9" transform="translate(494.331169, 116.500000)">
					<rect id="Rectangle-7_10_" x="0" y="0" fill="none" stroke="#CCCCCC" width="104.8" height="30"/>
					<rect id="Rectangle-7-Copy_10_" x="0" y="29" fill="none" stroke="#CCCCCC" width="104.8" height="30"/>
					<rect id="Rectangle-7-Copy-2_10_" x="0" y="58" fill="none" stroke="#CCCCCC" width="104.8" height="30"/>
					<rect id="Rectangle-7-Copy-3_10_" x="0" y="87" fill="none" stroke="#CCCCCC" width="104.8" height="30"/>
				</g>
				<g id="Cells-Copy-10" transform="translate(598.262987, 116.500000)">
					<rect id="Rectangle-7_11_" x="0" y="0" fill="none" stroke="#CCCCCC" width="104.8" height="30"/>
					<rect id="Rectangle-7-Copy_11_" x="0" y="29" fill="none" stroke="#CCCCCC" width="104.8" height="30"/>
					<rect id="Rectangle-7-Copy-2_11_" x="0" y="58" fill="none" stroke="#CCCCCC" width="104.8" height="30"/>
					<rect id="Rectangle-7-Copy-3_11_" x="0" y="87" fill="none" stroke="#CCCCCC" width="104.8" height="30"/>
				</g>
				<g id="Cells-Copy-11" transform="translate(702.194805, 116.500000)">
					<rect id="Rectangle-7_12_" x="0" y="0" fill="none" stroke="#CCCCCC" width="104.8" height="30"/>
					<rect id="Rectangle-7-Copy_12_" x="0" y="29" fill="none" stroke="#CCCCCC" width="104.8" height="30"/>
					<rect id="Rectangle-7-Copy-2_12_" x="0" y="58" fill="none" stroke="#CCCCCC" width="104.8" height="30"/>
					<rect id="Rectangle-7-Copy-3_12_" x="0" y="87" fill="none" stroke="#CCCCCC" width="104.8" height="30"/>
				</g>
			</g>
		</g>
	</g>
</g>
</svg>
