<?xml version="1.0" encoding="utf-8"?>
<!-- Generator: Adobe Illustrator 18.0.0, SVG Export Plug-In . SVG Version: 6.00 Build 0)  -->
<!DOCTYPE svg PUBLIC "-//W3C//DTD SVG 1.1//EN" "http://www.w3.org/Graphics/SVG/1.1/DTD/svg11.dtd">
<svg version="1.1" id="Layer_1" xmlns="http://www.w3.org/2000/svg" xmlns:xlink="http://www.w3.org/1999/xlink" x="0px" y="0px"
	 viewBox="0 629.4 900 141.1" enable-background="new 0 629.4 900 141.1" xml:space="preserve">
<g>
	<g>
		<path fill="#678BC7" d="M0,762.3c0,5,3.3,8.3,8.3,8.3h883.4c5,0,8.3-3.3,8.3-8.3V637.7c0-5-3.3-8.3-8.3-8.3H8.3
			c-5,0-8.3,3.3-8.3,8.3V762.3z"/>
	</g>
	<g enable-background="new    ">
		<path fill="#FFFFFF" d="M80.2,672.9h10.1l-20.8,59.3H59.3l-20.7-59.3h10L61,709.7c0.6,1.8,1.3,4,2.1,6.8c0.7,2.8,1.2,4.8,1.4,6.2
			c0.4-2.1,0.9-4.4,1.6-7.1c0.7-2.7,1.3-4.7,1.8-6L80.2,672.9z"/>
		<path fill="#FFFFFF" d="M96.5,675.4c0-1.7,0.5-3,1.4-3.9c0.9-0.9,2.3-1.4,4-1.4c1.7,0,3,0.5,3.9,1.4c0.9,0.9,1.4,2.2,1.4,3.9
			c0,1.6-0.5,2.9-1.4,3.8c-0.9,0.9-2.2,1.4-3.9,1.4c-1.7,0-3.1-0.5-4-1.4C97,678.3,96.5,677.1,96.5,675.4z M106.6,732.2h-9.5v-44.8
			h9.5V732.2z"/>
		<path fill="#FFFFFF" d="M139.8,733c-7,0-12.4-2-16.4-6.1c-3.9-4.1-5.9-9.7-5.9-16.8c0-7.3,1.8-13.1,5.5-17.3
			c3.6-4.2,8.7-6.3,15-6.3c5.9,0,10.6,1.8,14,5.4c3.4,3.6,5.1,8.5,5.1,14.8v5.1h-29.9c0.1,4.4,1.3,7.7,3.5,10
			c2.2,2.3,5.3,3.5,9.4,3.5c2.6,0,5.1-0.2,7.4-0.8c2.3-0.5,4.7-1.3,7.4-2.5v7.7c-2.3,1.1-4.7,1.9-7.1,2.4
			C145.6,732.7,142.9,733,139.8,733z M138.1,693.7c-3,0-5.5,1-7.3,2.9c-1.8,1.9-2.9,4.7-3.3,8.4h20.4c-0.1-3.7-0.9-6.5-2.7-8.4
			C143.5,694.7,141.1,693.7,138.1,693.7z"/>
		<path fill="#FFFFFF" d="M204.8,732.2l-5.8-20.9c-0.7-2.2-2-7.4-3.8-15.4h-0.4c-1.6,7.3-2.8,12.5-3.7,15.5l-6,20.8h-10.5
			l-12.6-44.8h9.7l5.7,22.1c1.3,5.5,2.2,10.1,2.8,14h0.2c0.3-2,0.7-4.2,1.2-6.8c0.6-2.6,1-4.5,1.4-5.7l6.8-23.6h10.5l6.6,23.6
			c0.4,1.3,0.9,3.4,1.5,6.1c0.6,2.7,1,4.9,1.1,6.4h0.3c0.4-3.3,1.4-8,2.8-13.9l5.8-22.1h9.6l-12.6,44.8H204.8z"/>
		<path fill="#FFFFFF" d="M258.5,732.2v-59.3h9.7v59.3H258.5z"/>
		<path fill="#FFFFFF" d="M297.9,733c-5.6,0-10-2-13.1-6.1c-3.1-4.1-4.7-9.7-4.7-17.1c0-7.4,1.6-13.1,4.8-17.2
			c3.2-4.1,7.6-6.1,13.2-6.1c5.9,0,10.4,2.2,13.5,6.5h0.5c-0.5-3.2-0.7-5.8-0.7-7.6v-16.3h9.6v63.1h-7.5l-1.7-5.9h-0.4
			C308.3,730.7,303.8,733,297.9,733z M300.5,725.3c3.9,0,6.8-1.1,8.6-3.3c1.8-2.2,2.7-5.8,2.8-10.7v-1.3c0-5.6-0.9-9.7-2.8-12
			c-1.8-2.4-4.7-3.6-8.6-3.6c-3.4,0-5.9,1.4-7.7,4.1c-1.8,2.7-2.7,6.6-2.7,11.6c0,5,0.9,8.8,2.6,11.4
			C294.3,724,297,725.3,300.5,725.3z"/>
		<path fill="#FFFFFF" d="M354.1,733c-7,0-12.4-2-16.4-6.1c-3.9-4.1-5.9-9.7-5.9-16.8c0-7.3,1.8-13.1,5.5-17.3
			c3.6-4.2,8.7-6.3,15-6.3c5.9,0,10.6,1.8,14,5.4c3.4,3.6,5.1,8.5,5.1,14.8v5.1h-29.9c0.1,4.4,1.3,7.7,3.5,10
			c2.2,2.3,5.3,3.5,9.4,3.5c2.6,0,5.1-0.2,7.4-0.8c2.3-0.5,4.7-1.3,7.4-2.5v7.7c-2.3,1.1-4.7,1.9-7.1,2.4
			C359.9,732.7,357.2,733,354.1,733z M352.4,693.7c-3,0-5.5,1-7.3,2.9c-1.8,1.9-2.9,4.7-3.3,8.4h20.4c-0.1-3.7-0.9-6.5-2.7-8.4
			C357.8,694.7,355.4,693.7,352.4,693.7z"/>
		<path fill="#FFFFFF" d="M421.8,732.2h-9.6v-27.6c0-3.5-0.7-6-2.1-7.7c-1.4-1.7-3.6-2.6-6.6-2.6c-4,0-7,1.2-8.8,3.6
			c-1.9,2.4-2.8,6.4-2.8,12v22.3h-9.5v-44.8h7.5l1.3,5.9h0.5c1.4-2.1,3.3-3.8,5.8-4.9c2.5-1.2,5.2-1.7,8.3-1.7
			c10.8,0,16.1,5.5,16.1,16.4V732.2z"/>
		<path fill="#FFFFFF" d="M451.8,725.3c2.3,0,4.6-0.4,7-1.1v7.2c-1.1,0.5-2.4,0.8-4.1,1.2c-1.7,0.3-3.4,0.5-5.2,0.5
			c-9,0-13.5-4.8-13.5-14.3v-24.2h-6.1v-4.2l6.6-3.5l3.2-9.5h5.9v10h12.8v7.2h-12.8v24c0,2.3,0.6,4,1.7,5.1
			C448.4,724.7,449.9,725.3,451.8,725.3z"/>
		<path fill="#FFFFFF" d="M467.1,675.4c0-1.7,0.5-3,1.4-3.9c0.9-0.9,2.3-1.4,4-1.4c1.7,0,3,0.5,3.9,1.4c0.9,0.9,1.4,2.2,1.4,3.9
			c0,1.6-0.5,2.9-1.4,3.8c-0.9,0.9-2.2,1.4-3.9,1.4c-1.7,0-3.1-0.5-4-1.4C467.6,678.3,467.1,677.1,467.1,675.4z M477.2,732.2h-9.5
			v-44.8h9.5V732.2z"/>
		<path fill="#FFFFFF" d="M513.3,694.5h-10.9v37.6h-9.6v-37.6h-7.4v-4.5l7.4-2.9v-2.9c0-5.3,1.2-9.2,3.7-11.8
			c2.5-2.6,6.3-3.8,11.4-3.8c3.4,0,6.6,0.6,9.9,1.7l-2.5,7.2c-2.4-0.8-4.6-1.1-6.7-1.1c-2.2,0-3.7,0.7-4.7,2c-1,1.3-1.5,3.3-1.5,6
			v2.9h10.9V694.5z"/>
		<path fill="#FFFFFF" d="M514.2,687.3h10.4l9.1,25.4c1.4,3.6,2.3,7,2.8,10.2h0.3c0.2-1.5,0.7-3.3,1.3-5.4
			c0.6-2.1,4.1-12.2,10.3-30.2h10.3l-19.2,50.8c-3.5,9.3-9.3,14-17.4,14c-2.1,0-4.2-0.2-6.2-0.7v-7.5c1.4,0.3,3.1,0.5,4.9,0.5
			c4.6,0,7.8-2.7,9.7-8l1.7-4.2L514.2,687.3z"/>
		<path fill="#FFFFFF" d="M564.9,675.4c0-1.7,0.5-3,1.4-3.9c0.9-0.9,2.3-1.4,4-1.4c1.7,0,3,0.5,3.9,1.4c0.9,0.9,1.4,2.2,1.4,3.9
			c0,1.6-0.5,2.9-1.4,3.8c-0.9,0.9-2.2,1.4-3.9,1.4c-1.7,0-3.1-0.5-4-1.4C565.4,678.3,564.9,677.1,564.9,675.4z M575,732.2h-9.5
			v-44.8h9.5V732.2z"/>
		<path fill="#FFFFFF" d="M628.1,732.2h-9.6v-27.6c0-3.5-0.7-6-2.1-7.7c-1.4-1.7-3.6-2.6-6.6-2.6c-4,0-7,1.2-8.8,3.6
			c-1.9,2.4-2.8,6.4-2.8,12v22.3h-9.5v-44.8h7.5l1.3,5.9h0.5c1.4-2.1,3.3-3.8,5.8-4.9c2.5-1.2,5.2-1.7,8.3-1.7
			c10.8,0,16.1,5.5,16.1,16.4V732.2z"/>
		<path fill="#FFFFFF" d="M679.2,687.3v5.2l-7.7,1.4c0.7,0.9,1.3,2.1,1.7,3.5s0.7,2.8,0.7,4.4c0,4.6-1.6,8.3-4.8,10.9
			c-3.2,2.6-7.6,4-13.2,4c-1.4,0-2.7-0.1-3.9-0.3c-2.1,1.3-3.1,2.8-3.1,4.5c0,1,0.5,1.8,1.4,2.3c1,0.5,2.7,0.8,5.3,0.8h7.8
			c4.9,0,8.7,1.1,11.3,3.2s3.9,5.1,3.9,9.1c0,5.1-2.1,9-6.3,11.8c-4.2,2.8-10.2,4.1-18.2,4.1c-6.1,0-10.8-1.1-14-3.2
			c-3.2-2.2-4.8-5.2-4.8-9.2c0-2.8,0.9-5.1,2.6-7s4.2-3.2,7.3-3.9c-1.3-0.5-2.3-1.4-3.1-2.6c-0.8-1.2-1.2-2.5-1.2-3.8
			c0-1.7,0.5-3.1,1.4-4.3c0.9-1.2,2.4-2.3,4.2-3.4c-2.3-1-4.2-2.6-5.7-4.9c-1.4-2.3-2.2-4.9-2.2-7.9c0-4.9,1.5-8.6,4.6-11.3
			c3.1-2.7,7.4-4,13.1-4c1.3,0,2.6,0.1,4,0.3c1.4,0.2,2.4,0.4,3.1,0.5H679.2z M644,739.1c0,2.1,0.9,3.6,2.8,4.7
			c1.9,1.1,4.5,1.7,7.8,1.7c5.2,0,9.1-0.7,11.6-2.2c2.5-1.5,3.8-3.5,3.8-5.9c0-1.9-0.7-3.3-2.1-4.2s-4-1.2-7.8-1.2h-7.2
			c-2.7,0-4.9,0.6-6.5,1.9C644.8,735.2,644,736.9,644,739.1z M648.1,701.8c0,2.8,0.7,5,2.2,6.5c1.4,1.5,3.5,2.3,6.2,2.3
			c5.5,0,8.3-2.9,8.3-8.8c0-2.9-0.7-5.2-2-6.7c-1.4-1.6-3.4-2.4-6.2-2.4c-2.8,0-4.8,0.8-6.3,2.4
			C648.8,696.6,648.1,698.8,648.1,701.8z"/>
		<path fill="#FFFFFF" d="M710.1,732.2v-59.3h9.7v59.3H710.1z"/>
		<path fill="#FFFFFF" d="M773.9,732.2h-9.6v-27.6c0-3.5-0.7-6-2.1-7.7c-1.4-1.7-3.6-2.6-6.6-2.6c-4,0-7,1.2-8.8,3.6
			c-1.9,2.4-2.8,6.4-2.8,12v22.3h-9.5v-44.8h7.5l1.3,5.9h0.5c1.4-2.1,3.3-3.8,5.8-4.9c2.5-1.2,5.2-1.7,8.3-1.7
			c10.8,0,16.1,5.5,16.1,16.4V732.2z"/>
		<path fill="#FFFFFF" d="M809.6,694.5h-10.9v37.6h-9.6v-37.6h-7.4v-4.5l7.4-2.9v-2.9c0-5.3,1.2-9.2,3.7-11.8
			c2.5-2.6,6.3-3.8,11.4-3.8c3.4,0,6.6,0.6,9.9,1.7l-2.5,7.2c-2.4-0.8-4.6-1.1-6.7-1.1c-2.2,0-3.7,0.7-4.7,2c-1,1.3-1.5,3.3-1.5,6
			v2.9h10.9V694.5z"/>
		<path fill="#FFFFFF" d="M857,709.7c0,7.3-1.9,13-5.6,17.1c-3.8,4.1-9,6.2-15.7,6.2c-4.2,0-7.9-0.9-11.1-2.8
			c-3.2-1.9-5.7-4.6-7.4-8.1c-1.7-3.5-2.6-7.6-2.6-12.3c0-7.3,1.9-12.9,5.6-17c3.7-4.1,9-6.1,15.8-6.1c6.5,0,11.6,2.1,15.4,6.3
			C855.1,697,857,702.6,857,709.7z M824.4,709.7c0,10.4,3.8,15.5,11.5,15.5c7.6,0,11.4-5.2,11.4-15.5c0-10.2-3.8-15.4-11.4-15.4
			c-4,0-6.9,1.3-8.7,4C825.3,700.9,824.4,704.7,824.4,709.7z"/>
	</g>
</g>
</svg>
