<?xml version="1.0" encoding="utf-8"?>
<!-- Generator: Adobe Illustrator 18.0.0, SVG Export Plug-In . SVG Version: 6.00 Build 0)  -->
<!DOCTYPE svg PUBLIC "-//W3C//DTD SVG 1.1//EN" "http://www.w3.org/Graphics/SVG/1.1/DTD/svg11.dtd">
<svg version="1.1" id="Layer_1" xmlns="http://www.w3.org/2000/svg" xmlns:xlink="http://www.w3.org/1999/xlink" x="0px" y="0px"
	 viewBox="0 0 16.4 16.4" enable-background="new 0 0 16.4 16.4" xml:space="preserve">
<path fill="#888A8C" d="M8.2,0C3.7,0,0,3.7,0,8.2s3.7,8.2,8.2,8.2s8.2-3.7,8.2-8.2S12.7,0,8.2,0z M10,7.4c-0.1,0.4-1.2,2.4-1.6,3.2
	C8.3,11,7.9,11.5,8,12c0.1,0.4,0.4,0.6,0.8,0.7c0.1,0,0.4,0.1,0.4,0.2c0,0.1,0,0.1-0.1,0.1H6.5c-0.4,0-0.7-0.3-0.7-0.6
	c0-0.4,0.2-0.8,0.4-1.1c0.3-0.7,0.7-1.5,1.1-2.2c0.1-0.3,0.2-0.5,0.4-0.8C7.8,8,8,7.7,7.9,7.4C7.8,7.1,7.4,6.9,7.1,6.8
	C7,6.8,6.6,6.8,6.6,6.6c0-0.1,0-0.1,0.1-0.1h2.5c0.4,0,0.7,0.3,0.7,0.7C10,7.2,10,7.3,10,7.4z M9.4,5.7c-0.7,0-1.2-0.5-1.2-1.2
	s0.5-1.2,1.2-1.2c0.7,0,1.2,0.5,1.2,1.2C10.6,5.2,10.1,5.7,9.4,5.7z"/>
</svg>
