<?xml version="1.0" encoding="utf-8"?>
<!-- Generator: Adobe Illustrator 18.0.0, SVG Export Plug-In . SVG Version: 6.00 Build 0)  -->
<!DOCTYPE svg PUBLIC "-//W3C//DTD SVG 1.1//EN" "http://www.w3.org/Graphics/SVG/1.1/DTD/svg11.dtd">
<svg version="1.1" id="Your_Icon" xmlns="http://www.w3.org/2000/svg" xmlns:xlink="http://www.w3.org/1999/xlink" x="0px" y="0px"
	 viewBox="34 148.9 561.3 562" enable-background="new 34 148.9 561.3 562" xml:space="preserve">
<path fill="#638CD3" d="M315.7,154.8C163.8,154.8,40,278.6,40,430.5s123.8,275.7,275.7,275.7s275.7-123.8,275.7-275.7
	S467.7,154.8,315.7,154.8z M376,403.1c-2.3,12.5-40.7,82.2-52.5,106.5c-6.3,13.3-18.8,32.1-16.4,47.8c2.3,12.5,14.9,19.6,26.6,21.9
	c3.9,0.8,14.9,2.3,14.9,7.8c0,2.3-1.6,3.9-3.9,3.9h-85.4c-12.5,0-22.7-8.6-24.3-20.4c-1.6-13.3,7-25.8,13.3-37.6
	c11.7-25.1,25.1-49.3,37.6-73.6c3.9-8.6,7.8-18,12.5-27.4c4.7-8.6,9.4-18.8,6.3-29c-3.9-11-16.4-16.4-26.6-18.8
	c-3.9-0.8-14.9-2.3-14.9-7.8c0-2.3,1.6-3.9,3.9-3.9h85.4c12.5,0,24.3,10.2,24.3,22.7C376.8,397.6,376.8,400.7,376,403.1z
	 M356.5,347.5c-21.9,0-39.2-18-39.2-39.2c0-21.1,18-39.2,39.2-39.2c21.9,0,39.2,18,39.2,39.2C396.4,330.2,378.4,347.5,356.5,347.5z"
	/>
</svg>
