<?xml version="1.0" encoding="UTF-8" standalone="no"?>
<svg width="32px" height="43px" viewBox="0 0 32 43" version="1.1" xmlns="http://www.w3.org/2000/svg" xmlns:xlink="http://www.w3.org/1999/xlink" xmlns:sketch="http://www.bohemiancoding.com/sketch/ns">
    <!-- Generator: Sketch 3.3.2 (12043) - http://www.bohemiancoding.com/sketch -->
    <title>Imported Layers</title>
    <desc>Created with Sketch.</desc>
    <defs></defs>
    <g id="Page-1" stroke="none" stroke-width="1" fill="none" fill-rule="evenodd" sketch:type="MSPage">
        <g id="Create-An-Account-Page" sketch:type="MSArtboardGroup" transform="translate(-130.000000, -877.000000)" stroke="#58595B" stroke-linejoin="round">
            <g id="Imported-Layers" sketch:type="MSLayerGroup" transform="translate(130.000000, 877.000000)">
                <path d="M16.8888889,26.6666667 C16.8888889,27.1555556 16.4906667,27.5555556 16,27.5555556 C15.5093333,27.5555556 15.1111111,27.1555556 15.1111111,26.6666667 C15.1111111,26.1742222 15.5093333,25.7777778 16,25.7777778 C16.4906667,25.7777778 16.8888889,26.1742222 16.8888889,26.6666667 L16.8888889,26.6666667 Z" id="Stroke-1" sketch:type="MSShapeGroup"></path>
                <path d="M16,27.5555556 L16,32.8888889" id="Stroke-2" stroke-linecap="round" sketch:type="MSShapeGroup"></path>
                <path d="M0.888888889,41.7777778 L31.1111111,41.7777778 L31.1111111,16.8888889 L0.888888889,16.8888889 L0.888888889,41.7777778 Z M6.22222222,10.6666667 C6.22222222,5.26577778 10.5991111,0.888888889 16,0.888888889 C21.4008889,0.888888889 25.7777778,5.26577778 25.7777778,10.6666667 L25.7777778,16.8888889 L6.22222222,16.8888889 L6.22222222,10.6666667 L6.22222222,10.6666667 Z" id="Stroke-3" sketch:type="MSShapeGroup"></path>
            </g>
        </g>
    </g>
</svg>