<?xml version="1.0" encoding="utf-8"?>
<!-- Generator: Adobe Illustrator 18.0.0, SVG Export Plug-In . SVG Version: 6.00 Build 0)  -->
<!DOCTYPE svg PUBLIC "-//W3C//DTD SVG 1.1//EN" "http://www.w3.org/Graphics/SVG/1.1/DTD/svg11.dtd">
<svg version="1.1" id="Layer_1" xmlns="http://www.w3.org/2000/svg" xmlns:xlink="http://www.w3.org/1999/xlink" x="0px" y="0px"
	 viewBox="0 0 39 36" enable-background="new 0 0 39 36" xml:space="preserve">
<g>
	<g>
		<path fill="#88898B" d="M27,21.6l11.1,9.7c1,0.9,1.1,2.4,0.2,3.4L38,35.2c-0.9,1-2.4,1.1-3.4,0.2l-11.1-9.6"/>
	</g>
	<path fill="#88898B" d="M0,14.5C0,6.5,6.5,0,14.5,0C22.5,0,29,6.5,29,14.5c0,8-6.5,14.5-14.5,14.5C6.5,29,0,22.5,0,14.5z
		 M14.7,25.1c5.8,0,10.6-4.7,10.6-10.6c0-5.8-4.7-10.6-10.6-10.6C8.8,3.9,4.1,8.6,4.1,14.5C4.1,20.3,8.8,25.1,14.7,25.1z"/>
</g>
</svg>
