<?xml version="1.0" encoding="utf-8"?>
<!-- Generator: Adobe Illustrator 18.0.0, SVG Export Plug-In . SVG Version: 6.00 Build 0)  -->
<!DOCTYPE svg PUBLIC "-//W3C//DTD SVG 1.1//EN" "http://www.w3.org/Graphics/SVG/1.1/DTD/svg11.dtd">
<svg version="1.1" id="Layer_1" xmlns="http://www.w3.org/2000/svg" xmlns:xlink="http://www.w3.org/1999/xlink" x="0px" y="0px"
	 viewBox="0 0 39.7 36.5" enable-background="new 0 0 39.7 36.5" xml:space="preserve">
<g opacity="0.6">
	<g>
		<path fill="#678AC6" d="M27.4,21.9l11.1,9.7c1,0.9,1.1,2.4,0.2,3.4l-0.4,0.5c-0.9,1-2.4,1.1-3.4,0.2l-11.1-9.6"/>
	</g>
	<path fill="#678AC6" d="M0.4,14.8c0-8,6.5-14.5,14.5-14.5c8,0,14.5,6.5,14.5,14.5c0,8-6.5,14.5-14.5,14.5
		C6.9,29.3,0.4,22.8,0.4,14.8z M15.1,25.4c5.8,0,10.6-4.7,10.6-10.6c0-5.8-4.7-10.6-10.6-10.6C9.2,4.2,4.5,8.9,4.5,14.8
		C4.5,20.6,9.2,25.4,15.1,25.4z"/>
</g>
</svg>
