<?xml version="1.0" encoding="UTF-8" standalone="no"?>
<svg width="14px" height="17px" viewBox="0 0 14 17" version="1.1" xmlns="http://www.w3.org/2000/svg" xmlns:xlink="http://www.w3.org/1999/xlink" xmlns:sketch="http://www.bohemiancoding.com/sketch/ns">
    <!-- Generator: Sketch 3.3.2 (12043) - http://www.bohemiancoding.com/sketch -->
    <title>Untitled 2</title>
    <desc>Created with Sketch.</desc>
    <defs></defs>
    <g id="Page-1" stroke="none" stroke-width="1" fill="none" fill-rule="evenodd" sketch:type="MSPage">
        <g id="11-users_account-group-2" sketch:type="MSLayerGroup" transform="translate(1.000000, 1.000000)" stroke="#4A4A4A" stroke-linejoin="round">
            <path d="M6.25176316,14.6052632 L12.2367632,14.6052632 L12.2367632,11.0526316 C12.2367632,10.6578947 9.86834211,9.47368421 7.89465789,8.68421053 L7.89465789,7.10526316 C7.89465789,7.10526316 8.68413158,6.82894737 8.68413158,5.13157895 C9.23281579,5.13157895 9.47360526,3.55263158 8.70939474,3.55263158 C8.70939474,3.38526316 9.31413158,2.52 9.07886842,1.57894737 C8.68413158,-5.96744876e-14 4.73676316,-5.96744876e-14 4.34202632,1.57894737 C2.68018421,1.23868421 3.94728947,3.32526316 3.94728947,3.55263158 C3.15781579,3.55263158 3.39781579,5.13157895 3.94728947,5.13157895 C3.94728947,6.82894737 4.73676316,7.10526316 4.73676316,7.10526316 L4.73676316,8.68421053 C2.76307895,9.47368421 0.394657895,10.6578947 0.394657895,11.0526316 L0.394657895,14.6052632 L6.25176316,14.6052632 L6.25176316,14.6052632 Z" id="Stroke-1" sketch:type="MSShapeGroup"></path>
        </g>
    </g>
</svg>