<?xml version="1.0" encoding="utf-8"?>
<!-- Generator: Adobe Illustrator 18.0.0, SVG Export Plug-In . SVG Version: 6.00 Build 0)  -->
<!DOCTYPE svg PUBLIC "-//W3C//DTD SVG 1.1//EN" "http://www.w3.org/Graphics/SVG/1.1/DTD/svg11.dtd">
<svg version="1.1" id="Layer_1" xmlns="http://www.w3.org/2000/svg" xmlns:xlink="http://www.w3.org/1999/xlink" x="0px" y="0px"
	 viewBox="0 0 900 1400" enable-background="new 0 0 900 1400" xml:space="preserve">
<g>
	<g>
		<path fill="#00A99D" d="M0,843c0,7.3,5.5,12.8,12.8,12.8h874.3c7.3,0,12.8-5.5,12.8-12.8V557c0-7.3-5.5-12.8-12.8-12.8H12.8
			C5.5,544.2,0,549.7,0,557V843z"/>
	</g>
	<g enable-background="new    ">
		<path fill="#FFFFFF" d="M189.2,679.7c0,13.7-4.5,24.1-13.4,31.4c-9,7.3-21.7,10.9-38.2,10.9h-13.6v49h-21.4V640.2h37.7
			c16.3,0,28.6,3.3,36.7,10C185.1,656.9,189.2,666.7,189.2,679.7z M123.9,704.1h11.4c11,0,19-1.9,24.2-5.7c5.1-3.8,7.7-9.8,7.7-17.9
			c0-7.5-2.3-13.1-6.9-16.8c-4.6-3.7-11.8-5.5-21.5-5.5h-14.9V704.1z"/>
		<path fill="#FFFFFF" d="M256.3,772.8c-15.4,0-27.4-4.5-36.1-13.5c-8.7-9-13-21.3-13-37.1c0-16.2,4-28.9,12.1-38.1
			c8.1-9.2,19.1-13.9,33.2-13.9c13.1,0,23.4,4,31,11.9c7.6,7.9,11.4,18.9,11.4,32.8v11.4h-66c0.3,9.6,2.9,17,7.8,22.2
			c4.9,5.2,11.8,7.7,20.7,7.7c5.8,0,11.3-0.6,16.3-1.7c5-1.1,10.5-2.9,16.2-5.5v17.1c-5.1,2.4-10.3,4.2-15.6,5.2
			C269,772.3,263,772.8,256.3,772.8z M252.5,686.2c-6.7,0-12,2.1-16.1,6.4c-4,4.2-6.4,10.4-7.2,18.5h44.9
			c-0.1-8.2-2.1-14.4-5.9-18.6C264.4,688.3,259.1,686.2,252.5,686.2z"/>
		<path fill="#FFFFFF" d="M405.8,771h-21.1v-60.9c0-7.6-1.5-13.3-4.6-17.1c-3.1-3.8-8-5.6-14.6-5.6c-8.9,0-15.4,2.6-19.5,7.9
			c-4.1,5.3-6.2,14.1-6.2,26.4V771h-21v-99h16.5l3,13h1.1c3-4.7,7.2-8.4,12.7-10.9c5.5-2.6,11.6-3.8,18.3-3.8
			c23.7,0,35.6,12.1,35.6,36.2V771z"/>
		<path fill="#FFFFFF" d="M468.4,772.8c-12.4,0-22-4.5-28.9-13.4c-6.9-9-10.4-21.5-10.4-37.7c0-16.2,3.5-28.9,10.5-37.9
			c7-9,16.7-13.6,29.1-13.6c13,0,22.9,4.8,29.7,14.4h1.1c-1-7.1-1.5-12.7-1.5-16.8v-36.1h21.1V771h-16.5l-3.7-13h-1
			C491.3,767.9,481.4,772.8,468.4,772.8z M474.1,755.8c8.7,0,14.9-2.4,18.9-7.3c3.9-4.9,6-12.8,6.1-23.7v-3c0-12.5-2-21.3-6.1-26.6
			c-4.1-5.2-10.4-7.9-19.1-7.9c-7.4,0-13.1,3-17.1,9c-4,6-6,14.5-6,25.6c0,11,1.9,19.3,5.8,25.1
			C460.5,752.9,466.3,755.8,474.1,755.8z"/>
		<path fill="#FFFFFF" d="M548,645.8c0-3.8,1-6.7,3.1-8.7c2.1-2,5-3,8.8-3c3.7,0,6.6,1,8.6,3c2.1,2,3.1,4.9,3.1,8.7
			c0,3.6-1,6.4-3.1,8.5s-4.9,3.1-8.6,3.1c-3.8,0-6.8-1-8.8-3.1S548,649.4,548,645.8z M570.3,771h-21v-99h21V771z"/>
		<path fill="#FFFFFF" d="M687.4,771h-21.1v-60.9c0-7.6-1.5-13.3-4.6-17.1c-3.1-3.8-8-5.6-14.6-5.6c-8.9,0-15.4,2.6-19.5,7.9
			c-4.1,5.3-6.2,14.1-6.2,26.4V771h-21v-99h16.5l3,13h1.1c3-4.7,7.2-8.4,12.7-10.9c5.5-2.6,11.6-3.8,18.3-3.8
			c23.7,0,35.6,12.1,35.6,36.2V771z"/>
		<path fill="#FFFFFF" d="M800.3,672v11.5l-16.9,3.1c1.6,2.1,2.8,4.7,3.8,7.7c1,3,1.5,6.3,1.5,9.7c0,10.2-3.5,18.2-10.6,24.1
			c-7,5.8-16.7,8.8-29.1,8.8c-3.2,0-6-0.2-8.6-0.7c-4.5,2.8-6.8,6.1-6.8,9.8c0,2.3,1.1,4,3.2,5.1c2.1,1.1,6,1.7,11.7,1.7h17.3
			c10.9,0,19.2,2.3,24.9,7c5.7,4.7,8.5,11.4,8.5,20.1c0,11.2-4.6,19.9-13.9,26c-9.2,6.1-22.6,9.1-40.1,9.1
			c-13.5,0-23.8-2.4-30.9-7.2c-7.1-4.8-10.7-11.6-10.7-20.4c0-6.1,1.9-11.2,5.8-15.3s9.2-7,16.2-8.6c-2.8-1.2-5.1-3.1-6.9-5.8
			c-1.8-2.7-2.7-5.4-2.7-8.4c0-3.7,1-6.8,3.1-9.4c2.1-2.6,5.2-5.1,9.3-7.6c-5.1-2.2-9.3-5.8-12.5-10.8c-3.2-5-4.8-10.8-4.8-17.5
			c0-10.7,3.4-19.1,10.2-25c6.8-5.9,16.4-8.9,29-8.9c2.8,0,5.7,0.2,8.8,0.6c3.1,0.4,5.4,0.8,6.9,1.2H800.3z M722.5,786.4
			c0,4.5,2,8,6.1,10.5c4.1,2.4,9.8,3.7,17.2,3.7c11.5,0,20-1.6,25.6-4.9c5.6-3.3,8.4-7.6,8.4-13.1c0-4.3-1.5-7.4-4.6-9.2
			c-3.1-1.8-8.8-2.7-17.1-2.7h-15.9c-6,0-10.8,1.4-14.4,4.3C724.3,777.7,722.5,781.6,722.5,786.4z M731.6,704.1
			c0,6.2,1.6,11,4.8,14.3c3.2,3.3,7.8,5,13.7,5c12.2,0,18.3-6.5,18.3-19.5c0-6.4-1.5-11.4-4.5-14.9c-3-3.5-7.6-5.2-13.7-5.2
			c-6.1,0-10.7,1.7-13.8,5.2C733.1,692.4,731.6,697.4,731.6,704.1z"/>
	</g>
</g>
</svg>
