<?xml version="1.0" encoding="utf-8"?>
<!-- Generator: Adobe Illustrator 18.0.0, SVG Export Plug-In . SVG Version: 6.00 Build 0)  -->
<!DOCTYPE svg PUBLIC "-//W3C//DTD SVG 1.1//EN" "http://www.w3.org/Graphics/SVG/1.1/DTD/svg11.dtd">
<svg version="1.1" id="Layer_1" xmlns="http://www.w3.org/2000/svg" xmlns:xlink="http://www.w3.org/1999/xlink" x="0px" y="0px"
	 viewBox="0 0 674.2 220.5" enable-background="new 0 0 674.2 220.5" xml:space="preserve">
<g>
	
		<image overflow="visible" opacity="0.3" width="2460" height="603" xlink:href="76F49B21C6F903C3.png"  transform="matrix(0.24 0 0 0.24 83.7747 75.7998)">
	</image>
	<g>
		<rect x="91.2" y="79.3" fill="#FFFFFF" width="575.4" height="129.9"/>
		
			<rect x="91.2" y="79.3" fill="none" stroke="#BBBDBF" stroke-width="0.7775" stroke-miterlimit="10" width="575.4" height="129.9"/>
	</g>
</g>
<path fill="none" stroke="#4D4D4E" stroke-width="1.0603" stroke-miterlimit="10" d="M107.4,123.2C-13.3,118.4,9.5,1.9,9.5,1.9
	L15.7,18L9.2,1.9L0.5,16"/>
<g opacity="0.74">
	<path fill="#EE2B2F" d="M131.3,120.6c0,1.2-0.4,2-1.2,2.7s-1.9,0.9-3.4,0.9h-1.3v4.5H124v-11.4h3
		C129.8,117.3,131.3,118.4,131.3,120.6z M125.4,123.1h1.2c1.2,0,2-0.2,2.6-0.6c0.5-0.4,0.8-1,0.8-1.8c0-0.8-0.2-1.3-0.7-1.7
		c-0.5-0.4-1.3-0.6-2.3-0.6h-1.5V123.1z"/>
	<path fill="#EE2B2F" d="M134.8,128.7h-1.3v-12.2h1.3V128.7z"/>
	<path fill="#EE2B2F" d="M141.1,128.9c-1.3,0-2.3-0.4-3-1.2c-0.7-0.8-1.1-1.8-1.1-3.2c0-1.4,0.3-2.5,1-3.3s1.6-1.2,2.7-1.2
		c1.1,0,1.9,0.4,2.5,1.1s0.9,1.6,0.9,2.8v0.8h-5.9c0,1,0.3,1.8,0.8,2.3c0.5,0.5,1.2,0.8,2,0.8c0.9,0,1.8-0.2,2.7-0.6v1.2
		c-0.5,0.2-0.9,0.3-1.3,0.4C142.2,128.8,141.7,128.9,141.1,128.9z M140.8,121.1c-0.7,0-1.2,0.2-1.6,0.7c-0.4,0.4-0.6,1.1-0.7,1.9
		h4.5c0-0.8-0.2-1.4-0.5-1.9C142,121.3,141.5,121.1,140.8,121.1z"/>
	<path fill="#EE2B2F" d="M151.8,128.7l-0.3-1.2h-0.1c-0.4,0.5-0.9,0.9-1.3,1.1c-0.4,0.2-1,0.3-1.6,0.3c-0.8,0-1.5-0.2-2-0.7
		c-0.5-0.4-0.7-1.1-0.7-1.9c0-1.7,1.4-2.6,4.1-2.7l1.5,0V123c0-0.7-0.1-1.2-0.4-1.5s-0.8-0.5-1.4-0.5c-0.7,0-1.5,0.2-2.4,0.7l-0.4-1
		c0.4-0.2,0.9-0.4,1.4-0.5c0.5-0.1,1-0.2,1.5-0.2c1,0,1.8,0.2,2.3,0.7s0.7,1.2,0.7,2.2v5.8H151.8z M148.8,127.8
		c0.8,0,1.4-0.2,1.9-0.7s0.7-1.1,0.7-1.9v-0.8l-1.3,0.1c-1,0-1.8,0.2-2.2,0.5c-0.5,0.3-0.7,0.7-0.7,1.3c0,0.5,0.1,0.8,0.4,1.1
		C147.9,127.7,148.3,127.8,148.8,127.8z"/>
	<path fill="#EE2B2F" d="M160.9,126.4c0,0.8-0.3,1.4-0.9,1.8s-1.4,0.6-2.5,0.6c-1.1,0-2-0.2-2.7-0.5v-1.2c0.4,0.2,0.9,0.4,1.3,0.5
		c0.5,0.1,0.9,0.2,1.4,0.2c0.7,0,1.2-0.1,1.6-0.3c0.4-0.2,0.5-0.5,0.5-1c0-0.3-0.1-0.6-0.4-0.9s-0.9-0.5-1.7-0.8
		c-0.8-0.3-1.4-0.6-1.7-0.8s-0.6-0.5-0.8-0.8s-0.2-0.6-0.2-1c0-0.7,0.3-1.2,0.9-1.7c0.6-0.4,1.3-0.6,2.3-0.6c0.9,0,1.8,0.2,2.7,0.6
		l-0.5,1.1c-0.9-0.4-1.6-0.5-2.3-0.5c-0.6,0-1.1,0.1-1.4,0.3s-0.5,0.5-0.5,0.8c0,0.2,0.1,0.4,0.2,0.6s0.3,0.3,0.6,0.5
		c0.3,0.1,0.8,0.4,1.5,0.6c1,0.4,1.7,0.7,2.1,1.1C160.7,125.3,160.9,125.8,160.9,126.4z"/>
	<path fill="#EE2B2F" d="M166.6,128.9c-1.3,0-2.3-0.4-3-1.2c-0.7-0.8-1.1-1.8-1.1-3.2c0-1.4,0.3-2.5,1-3.3s1.6-1.2,2.7-1.2
		c1.1,0,1.9,0.4,2.5,1.1s0.9,1.6,0.9,2.8v0.8h-5.9c0,1,0.3,1.8,0.8,2.3c0.5,0.5,1.2,0.8,2,0.8c0.9,0,1.8-0.2,2.7-0.6v1.2
		c-0.5,0.2-0.9,0.3-1.3,0.4C167.7,128.8,167.2,128.9,166.6,128.9z M166.3,121.1c-0.7,0-1.2,0.2-1.6,0.7c-0.4,0.4-0.6,1.1-0.7,1.9
		h4.5c0-0.8-0.2-1.4-0.5-1.9C167.5,121.3,167,121.1,166.3,121.1z"/>
	<path fill="#EE2B2F" d="M179.6,128.9c-1.2,0-2.2-0.4-2.9-1.1s-1-1.8-1-3.2c0-1.4,0.3-2.5,1-3.3c0.7-0.8,1.7-1.2,2.9-1.2
		c0.4,0,0.8,0,1.2,0.1c0.4,0.1,0.7,0.2,1,0.3l-0.4,1.1c-0.3-0.1-0.6-0.2-0.9-0.3c-0.3-0.1-0.6-0.1-0.9-0.1c-1.7,0-2.6,1.1-2.6,3.3
		c0,1.1,0.2,1.9,0.6,2.4c0.4,0.6,1.1,0.8,1.9,0.8c0.7,0,1.4-0.2,2.2-0.5v1.1C181.2,128.7,180.4,128.9,179.6,128.9z"/>
	<path fill="#EE2B2F" d="M185.1,128.7h-1.3v-12.2h1.3V128.7z"/>
	<path fill="#EE2B2F" d="M187.7,117.8c0-0.3,0.1-0.5,0.2-0.7c0.1-0.1,0.3-0.2,0.5-0.2c0.2,0,0.4,0.1,0.5,0.2
		c0.2,0.1,0.2,0.4,0.2,0.6s-0.1,0.5-0.2,0.7c-0.2,0.1-0.3,0.2-0.5,0.2c-0.2,0-0.4-0.1-0.5-0.2C187.8,118.3,187.7,118.1,187.7,117.8z
		 M189.1,128.7h-1.3v-8.6h1.3V128.7z"/>
	<path fill="#EE2B2F" d="M195.3,128.9c-1.2,0-2.2-0.4-2.9-1.1s-1-1.8-1-3.2c0-1.4,0.3-2.5,1-3.3c0.7-0.8,1.7-1.2,2.9-1.2
		c0.4,0,0.8,0,1.2,0.1c0.4,0.1,0.7,0.2,1,0.3l-0.4,1.1c-0.3-0.1-0.6-0.2-0.9-0.3c-0.3-0.1-0.6-0.1-0.9-0.1c-1.7,0-2.6,1.1-2.6,3.3
		c0,1.1,0.2,1.9,0.6,2.4c0.4,0.6,1.1,0.8,1.9,0.8c0.7,0,1.4-0.2,2.2-0.5v1.1C196.9,128.7,196.2,128.9,195.3,128.9z"/>
	<path fill="#EE2B2F" d="M200.8,124.3c0.2-0.3,0.6-0.7,1-1.2l2.8-2.9h1.5l-3.5,3.6l3.7,4.9h-1.6l-3-4l-1,0.8v3.2h-1.3v-12.2h1.3v6.4
		C200.8,123.3,200.7,123.7,200.8,124.3L200.8,124.3z"/>
	<path fill="#EE2B2F" d="M217.9,128.7v-5.5c0-0.7-0.2-1.2-0.5-1.6c-0.3-0.3-0.8-0.5-1.5-0.5c-0.9,0-1.6,0.2-2,0.7s-0.6,1.3-0.6,2.4
		v4.5H212v-12.2h1.3v3.7c0,0.4,0,0.8-0.1,1.1h0.1c0.3-0.4,0.6-0.7,1.1-1c0.5-0.2,1-0.4,1.6-0.4c1,0,1.8,0.2,2.4,0.7s0.8,1.3,0.8,2.4
		v5.6H217.9z"/>
	<path fill="#EE2B2F" d="M225.5,128.9c-1.3,0-2.3-0.4-3-1.2c-0.7-0.8-1.1-1.8-1.1-3.2c0-1.4,0.3-2.5,1-3.3s1.6-1.2,2.7-1.2
		c1.1,0,1.9,0.4,2.5,1.1s0.9,1.6,0.9,2.8v0.8h-5.9c0,1,0.3,1.8,0.8,2.3c0.5,0.5,1.2,0.8,2,0.8c0.9,0,1.8-0.2,2.7-0.6v1.2
		c-0.5,0.2-0.9,0.3-1.3,0.4C226.5,128.8,226,128.9,225.5,128.9z M225.1,121.1c-0.7,0-1.2,0.2-1.6,0.7c-0.4,0.4-0.6,1.1-0.7,1.9h4.5
		c0-0.8-0.2-1.4-0.5-1.9C226.3,121.3,225.8,121.1,225.1,121.1z"/>
	<path fill="#EE2B2F" d="M234.7,120c0.4,0,0.7,0,1,0.1l-0.2,1.2c-0.4-0.1-0.7-0.1-0.9-0.1c-0.7,0-1.3,0.3-1.8,0.8s-0.7,1.3-0.7,2.1
		v4.6h-1.3v-8.6h1.1l0.1,1.6h0.1c0.3-0.6,0.7-1,1.1-1.3C233.7,120.1,234.2,120,234.7,120z"/>
	<path fill="#EE2B2F" d="M241,128.9c-1.3,0-2.3-0.4-3-1.2c-0.7-0.8-1.1-1.8-1.1-3.2c0-1.4,0.3-2.5,1-3.3s1.6-1.2,2.7-1.2
		c1.1,0,1.9,0.4,2.5,1.1s0.9,1.6,0.9,2.8v0.8h-5.9c0,1,0.3,1.8,0.8,2.3c0.5,0.5,1.2,0.8,2,0.8c0.9,0,1.8-0.2,2.7-0.6v1.2
		c-0.5,0.2-0.9,0.3-1.3,0.4C242.1,128.8,241.6,128.9,241,128.9z M240.6,121.1c-0.7,0-1.2,0.2-1.6,0.7c-0.4,0.4-0.6,1.1-0.7,1.9h4.5
		c0-0.8-0.2-1.4-0.5-1.9C241.8,121.3,241.3,121.1,240.6,121.1z"/>
	<path fill="#EE2B2F" d="M253.3,127.8c0.2,0,0.5,0,0.7-0.1c0.2,0,0.4-0.1,0.5-0.1v1c-0.1,0.1-0.3,0.1-0.6,0.2
		c-0.3,0-0.5,0.1-0.7,0.1c-1.7,0-2.5-0.9-2.5-2.6v-5.1h-1.2v-0.6l1.2-0.5l0.5-1.8h0.8v2h2.5v1h-2.5v5c0,0.5,0.1,0.9,0.4,1.2
		C252.5,127.7,252.8,127.8,253.3,127.8z"/>
	<path fill="#EE2B2F" d="M263.5,124.4c0,1.4-0.4,2.5-1.1,3.3s-1.7,1.2-2.9,1.2c-0.8,0-1.4-0.2-2-0.5s-1.1-0.9-1.4-1.5
		c-0.3-0.7-0.5-1.5-0.5-2.4c0-1.4,0.3-2.5,1-3.3c0.7-0.8,1.7-1.2,2.9-1.2c1.2,0,2.1,0.4,2.9,1.2C263.2,122,263.5,123.1,263.5,124.4z
		 M257,124.4c0,1.1,0.2,1.9,0.7,2.5s1.1,0.9,1.9,0.9c0.8,0,1.5-0.3,1.9-0.9c0.4-0.6,0.7-1.4,0.7-2.5c0-1.1-0.2-1.9-0.7-2.5
		c-0.4-0.6-1.1-0.8-1.9-0.8c-0.8,0-1.5,0.3-1.9,0.8C257.2,122.5,257,123.3,257,124.4z"/>
	<path fill="#EE2B2F" d="M270.2,117.3h3.2c1.5,0,2.6,0.2,3.3,0.7c0.7,0.5,1,1.2,1,2.1c0,0.7-0.2,1.2-0.6,1.7
		c-0.4,0.4-0.9,0.7-1.7,0.9v0.1c1.7,0.3,2.6,1.2,2.6,2.7c0,1-0.3,1.8-1,2.4c-0.7,0.6-1.7,0.9-2.9,0.9h-4V117.3z M271.5,122.2h2.2
		c0.9,0,1.6-0.1,2-0.4c0.4-0.3,0.6-0.8,0.6-1.5c0-0.6-0.2-1.1-0.7-1.4c-0.5-0.3-1.2-0.4-2.2-0.4h-2V122.2z M271.5,123.3v4.3h2.4
		c0.9,0,1.6-0.2,2.1-0.5c0.5-0.4,0.7-0.9,0.7-1.7c0-0.7-0.2-1.2-0.7-1.6s-1.2-0.5-2.2-0.5H271.5z"/>
	<path fill="#EE2B2F" d="M281.5,120.1v5.6c0,0.7,0.2,1.2,0.5,1.6c0.3,0.3,0.8,0.5,1.5,0.5c0.9,0,1.6-0.2,2-0.7s0.6-1.3,0.6-2.4v-4.5
		h1.3v8.6h-1.1l-0.2-1.1h-0.1c-0.3,0.4-0.6,0.7-1.1,1c-0.5,0.2-1,0.3-1.6,0.3c-1,0-1.8-0.2-2.3-0.7c-0.5-0.5-0.8-1.3-0.8-2.4v-5.6
		H281.5z"/>
	<path fill="#EE2B2F" d="M290,117.8c0-0.3,0.1-0.5,0.2-0.7c0.1-0.1,0.3-0.2,0.5-0.2c0.2,0,0.4,0.1,0.5,0.2c0.2,0.1,0.2,0.4,0.2,0.6
		s-0.1,0.5-0.2,0.7c-0.2,0.1-0.3,0.2-0.5,0.2c-0.2,0-0.4-0.1-0.5-0.2C290.1,118.3,290,118.1,290,117.8z M291.4,128.7h-1.3v-8.6h1.3
		V128.7z"/>
	<path fill="#EE2B2F" d="M295.5,128.7h-1.3v-12.2h1.3V128.7z"/>
	<path fill="#EE2B2F" d="M304.1,127.6L304.1,127.6c-0.7,0.9-1.6,1.3-2.8,1.3c-1.1,0-2-0.4-2.6-1.1c-0.6-0.8-0.9-1.9-0.9-3.3
		s0.3-2.5,0.9-3.3s1.5-1.2,2.6-1.2c1.2,0,2.1,0.4,2.7,1.3h0.1l-0.1-0.6l0-0.6v-3.5h1.3v12.2h-1.1L304.1,127.6z M301.5,127.8
		c0.9,0,1.5-0.2,1.9-0.7s0.6-1.3,0.6-2.3v-0.3c0-1.2-0.2-2.1-0.6-2.6c-0.4-0.5-1-0.8-1.9-0.8c-0.8,0-1.3,0.3-1.7,0.9
		c-0.4,0.6-0.6,1.4-0.6,2.5c0,1.1,0.2,1.9,0.6,2.5C300.1,127.5,300.7,127.8,301.5,127.8z"/>
	<path fill="#EE2B2F" d="M319.6,128.7l-1.4-3.6h-4.6l-1.4,3.6h-1.3l4.5-11.5h1.1l4.5,11.5H319.6z M317.7,123.9l-1.3-3.5
		c-0.2-0.4-0.3-1-0.5-1.6c-0.1,0.5-0.3,1-0.5,1.6l-1.3,3.5H317.7z"/>
	<path fill="#EE2B2F" d="M335.6,128.7h-1.5l-6.2-9.6h-0.1c0.1,1.1,0.1,2.2,0.1,3.1v6.5h-1.2v-11.4h1.5l6.2,9.5h0.1
		c0-0.1,0-0.6-0.1-1.4c0-0.8,0-1.3,0-1.6v-6.6h1.2V128.7z"/>
	<path fill="#EE2B2F" d="M342.2,128.9c-1.3,0-2.3-0.4-3-1.2c-0.7-0.8-1.1-1.8-1.1-3.2c0-1.4,0.3-2.5,1-3.3s1.6-1.2,2.7-1.2
		c1.1,0,1.9,0.4,2.5,1.1s0.9,1.6,0.9,2.8v0.8h-5.9c0,1,0.3,1.8,0.8,2.3c0.5,0.5,1.2,0.8,2,0.8c0.9,0,1.8-0.2,2.7-0.6v1.2
		c-0.5,0.2-0.9,0.3-1.3,0.4C343.2,128.8,342.7,128.9,342.2,128.9z M341.8,121.1c-0.7,0-1.2,0.2-1.6,0.7c-0.4,0.4-0.6,1.1-0.7,1.9
		h4.5c0-0.8-0.2-1.4-0.5-1.9C343,121.3,342.5,121.1,341.8,121.1z"/>
	<path fill="#EE2B2F" d="M354.5,128.7l-1.6-5c-0.1-0.3-0.3-1-0.6-2.1h-0.1c-0.2,0.9-0.4,1.6-0.5,2.1l-1.6,5h-1.5l-2.3-8.6h1.4
		c0.6,2.2,1,3.8,1.3,4.9s0.5,1.9,0.5,2.3h0.1c0.1-0.3,0.1-0.7,0.3-1.2c0.1-0.5,0.2-0.8,0.3-1.1l1.6-4.9h1.4l1.5,4.9
		c0.3,0.9,0.5,1.6,0.6,2.3h0.1c0-0.2,0.1-0.5,0.2-0.9c0.1-0.4,0.6-2.5,1.6-6.3h1.3l-2.4,8.6H354.5z"/>
	<path fill="#EE2B2F" d="M374.2,123c0,1.5-0.3,2.7-0.9,3.6c-0.6,1-1.4,1.6-2.5,2l2.7,2.8h-1.9l-2.2-2.6l-0.4,0c-1.7,0-3-0.5-3.9-1.5
		s-1.4-2.5-1.4-4.4c0-1.9,0.5-3.3,1.4-4.3c0.9-1,2.2-1.5,3.9-1.5c1.6,0,2.9,0.5,3.8,1.6S374.2,121.2,374.2,123z M365.1,123
		c0,1.5,0.3,2.7,1,3.5c0.7,0.8,1.6,1.2,2.9,1.2c1.3,0,2.2-0.4,2.9-1.2c0.6-0.8,1-2,1-3.5c0-1.5-0.3-2.7-1-3.5
		c-0.6-0.8-1.6-1.2-2.9-1.2c-1.3,0-2.2,0.4-2.9,1.2C365.5,120.3,365.1,121.5,365.1,123z"/>
	<path fill="#EE2B2F" d="M377.8,120.1v5.6c0,0.7,0.2,1.2,0.5,1.6c0.3,0.3,0.8,0.5,1.5,0.5c0.9,0,1.6-0.2,2-0.7s0.6-1.3,0.6-2.4v-4.5
		h1.3v8.6h-1.1l-0.2-1.1h-0.1c-0.3,0.4-0.6,0.7-1.1,1c-0.5,0.2-1,0.3-1.6,0.3c-1,0-1.8-0.2-2.3-0.7c-0.5-0.5-0.8-1.3-0.8-2.4v-5.6
		H377.8z"/>
	<path fill="#EE2B2F" d="M390,128.9c-1.3,0-2.3-0.4-3-1.2c-0.7-0.8-1.1-1.8-1.1-3.2c0-1.4,0.3-2.5,1-3.3s1.6-1.2,2.7-1.2
		c1.1,0,1.9,0.4,2.5,1.1s0.9,1.6,0.9,2.8v0.8h-5.9c0,1,0.3,1.8,0.8,2.3c0.5,0.5,1.2,0.8,2,0.8c0.9,0,1.8-0.2,2.7-0.6v1.2
		c-0.5,0.2-0.9,0.3-1.3,0.4C391.1,128.8,390.6,128.9,390,128.9z M389.7,121.1c-0.7,0-1.2,0.2-1.6,0.7c-0.4,0.4-0.6,1.1-0.7,1.9h4.5
		c0-0.8-0.2-1.4-0.5-1.9C390.9,121.3,390.4,121.1,389.7,121.1z"/>
	<path fill="#EE2B2F" d="M399.3,120c0.4,0,0.7,0,1,0.1l-0.2,1.2c-0.4-0.1-0.7-0.1-0.9-0.1c-0.7,0-1.3,0.3-1.8,0.8s-0.7,1.3-0.7,2.1
		v4.6h-1.3v-8.6h1.1l0.1,1.6h0.1c0.3-0.6,0.7-1,1.1-1.3C398.3,120.1,398.8,120,399.3,120z"/>
	<path fill="#EE2B2F" d="M400.6,120.1h1.4l1.9,4.9c0.4,1.1,0.7,1.9,0.8,2.4h0.1c0.1-0.3,0.2-0.7,0.4-1.4c0.2-0.6,0.9-2.6,2.1-5.9
		h1.4l-3.7,9.8c-0.4,1-0.8,1.6-1.3,2.1c-0.5,0.4-1.1,0.6-1.8,0.6c-0.4,0-0.8,0-1.2-0.1v-1c0.3,0.1,0.6,0.1,1,0.1
		c0.9,0,1.5-0.5,1.9-1.5l0.5-1.2L400.6,120.1z"/>
	<path fill="#EE2B2F" d="M409.8,127.9c0-0.3,0.1-0.6,0.2-0.8c0.2-0.2,0.4-0.3,0.7-0.3c0.3,0,0.5,0.1,0.7,0.3
		c0.2,0.2,0.3,0.4,0.3,0.8c0,0.3-0.1,0.6-0.3,0.8c-0.2,0.2-0.4,0.3-0.7,0.3c-0.3,0-0.5-0.1-0.7-0.2
		C409.9,128.5,409.8,128.3,409.8,127.9z"/>
	<path fill="#EE2B2F" d="M131.2,174.7l-1.4-3.6h-4.6l-1.4,3.6h-1.3l4.5-11.5h1.1l4.5,11.5H131.2z M129.4,169.9l-1.3-3.5
		c-0.2-0.4-0.3-1-0.5-1.6c-0.1,0.5-0.3,1-0.5,1.6l-1.3,3.5H129.4z"/>
	<path fill="#EE2B2F" d="M137.8,167.2h-2.2v7.6h-1.3v-7.6h-1.5v-0.6l1.5-0.5v-0.5c0-2.1,0.9-3.2,2.8-3.2c0.5,0,1,0.1,1.6,0.3l-0.3,1
		c-0.5-0.2-0.9-0.2-1.3-0.2c-0.5,0-0.9,0.2-1.1,0.5s-0.4,0.8-0.4,1.6v0.6h2.2V167.2z"/>
	<path fill="#EE2B2F" d="M142.1,173.8c0.2,0,0.5,0,0.7-0.1c0.2,0,0.4-0.1,0.5-0.1v1c-0.1,0.1-0.3,0.1-0.6,0.2
		c-0.3,0-0.5,0.1-0.7,0.1c-1.7,0-2.5-0.9-2.5-2.6v-5.1h-1.2v-0.6l1.2-0.5l0.5-1.8h0.8v2h2.5v1h-2.5v5c0,0.5,0.1,0.9,0.4,1.2
		C141.4,173.7,141.7,173.8,142.1,173.8z"/>
	<path fill="#EE2B2F" d="M148.6,174.9c-1.3,0-2.3-0.4-3-1.2c-0.7-0.8-1.1-1.8-1.1-3.2c0-1.4,0.3-2.5,1-3.3s1.6-1.2,2.7-1.2
		c1.1,0,1.9,0.4,2.5,1.1s0.9,1.6,0.9,2.8v0.8h-5.9c0,1,0.3,1.8,0.8,2.3c0.5,0.5,1.2,0.8,2,0.8c0.9,0,1.8-0.2,2.7-0.6v1.2
		c-0.5,0.2-0.9,0.3-1.3,0.4C149.7,174.8,149.2,174.9,148.6,174.9z M148.3,167.1c-0.7,0-1.2,0.2-1.6,0.7c-0.4,0.4-0.6,1.1-0.7,1.9
		h4.5c0-0.8-0.2-1.4-0.5-1.9C149.5,167.3,149,167.1,148.3,167.1z"/>
	<path fill="#EE2B2F" d="M157.9,166c0.4,0,0.7,0,1,0.1l-0.2,1.2c-0.4-0.1-0.7-0.1-0.9-0.1c-0.7,0-1.3,0.3-1.8,0.8s-0.7,1.3-0.7,2.1
		v4.6H154v-8.6h1.1l0.1,1.6h0.1c0.3-0.6,0.7-1,1.1-1.3C156.9,166.1,157.4,166,157.9,166z"/>
	<path fill="#EE2B2F" d="M168.7,166c1.1,0,2,0.4,2.6,1.2c0.6,0.8,0.9,1.9,0.9,3.3s-0.3,2.5-0.9,3.3c-0.6,0.8-1.5,1.2-2.6,1.2
		c-0.6,0-1.1-0.1-1.5-0.3c-0.5-0.2-0.8-0.5-1.2-0.9h-0.1l-0.3,1.1h-0.9v-12.2h1.3v3c0,0.7,0,1.3-0.1,1.8h0.1
		C166.6,166.4,167.5,166,168.7,166z M168.5,167.1c-0.9,0-1.5,0.3-1.9,0.8s-0.6,1.4-0.6,2.6s0.2,2.1,0.6,2.6c0.4,0.5,1,0.8,1.9,0.8
		c0.8,0,1.4-0.3,1.8-0.9s0.6-1.4,0.6-2.5c0-1.1-0.2-1.9-0.6-2.5S169.3,167.1,168.5,167.1z"/>
	<path fill="#EE2B2F" d="M175.7,166.1v5.6c0,0.7,0.2,1.2,0.5,1.6c0.3,0.3,0.8,0.5,1.5,0.5c0.9,0,1.6-0.2,2-0.7s0.6-1.3,0.6-2.4v-4.5
		h1.3v8.6h-1.1l-0.2-1.1h-0.1c-0.3,0.4-0.6,0.7-1.1,1c-0.5,0.2-1,0.3-1.6,0.3c-1,0-1.8-0.2-2.3-0.7c-0.5-0.5-0.8-1.3-0.8-2.4v-5.6
		H175.7z"/>
	<path fill="#EE2B2F" d="M184.2,163.8c0-0.3,0.1-0.5,0.2-0.7c0.1-0.1,0.3-0.2,0.5-0.2c0.2,0,0.4,0.1,0.5,0.2
		c0.2,0.1,0.2,0.4,0.2,0.6s-0.1,0.5-0.2,0.7c-0.2,0.1-0.3,0.2-0.5,0.2c-0.2,0-0.4-0.1-0.5-0.2C184.3,164.3,184.2,164.1,184.2,163.8z
		 M185.6,174.7h-1.3v-8.6h1.3V174.7z"/>
	<path fill="#EE2B2F" d="M189.7,174.7h-1.3v-12.2h1.3V174.7z"/>
	<path fill="#EE2B2F" d="M198.2,173.6L198.2,173.6c-0.7,0.9-1.6,1.3-2.8,1.3c-1.1,0-2-0.4-2.6-1.1c-0.6-0.8-0.9-1.9-0.9-3.3
		s0.3-2.5,0.9-3.3s1.5-1.2,2.6-1.2c1.2,0,2.1,0.4,2.7,1.3h0.1l-0.1-0.6l0-0.6v-3.5h1.3v12.2h-1.1L198.2,173.6z M195.6,173.8
		c0.9,0,1.5-0.2,1.9-0.7s0.6-1.3,0.6-2.3v-0.3c0-1.2-0.2-2.1-0.6-2.6c-0.4-0.5-1-0.8-1.9-0.8c-0.8,0-1.3,0.3-1.7,0.9
		c-0.4,0.6-0.6,1.4-0.6,2.5c0,1.1,0.2,1.9,0.6,2.5C194.3,173.5,194.9,173.8,195.6,173.8z"/>
	<path fill="#EE2B2F" d="M202.1,163.8c0-0.3,0.1-0.5,0.2-0.7c0.1-0.1,0.3-0.2,0.5-0.2c0.2,0,0.4,0.1,0.5,0.2
		c0.2,0.1,0.2,0.4,0.2,0.6s-0.1,0.5-0.2,0.7c-0.2,0.1-0.3,0.2-0.5,0.2c-0.2,0-0.4-0.1-0.5-0.2C202.2,164.3,202.1,164.1,202.1,163.8z
		 M203.5,174.7h-1.3v-8.6h1.3V174.7z"/>
	<path fill="#EE2B2F" d="M212.1,174.7v-5.5c0-0.7-0.2-1.2-0.5-1.6c-0.3-0.3-0.8-0.5-1.5-0.5c-0.9,0-1.6,0.2-2,0.7
		c-0.4,0.5-0.6,1.3-0.6,2.4v4.5h-1.3v-8.6h1.1l0.2,1.2h0.1c0.3-0.4,0.6-0.7,1.1-1c0.5-0.2,1-0.3,1.6-0.3c1,0,1.8,0.2,2.3,0.7
		c0.5,0.5,0.8,1.3,0.8,2.4v5.6H212.1z"/>
	<path fill="#EE2B2F" d="M223.1,166.1v0.8l-1.6,0.2c0.1,0.2,0.3,0.4,0.4,0.7c0.1,0.3,0.2,0.6,0.2,1c0,0.8-0.3,1.5-0.9,2
		c-0.6,0.5-1.4,0.8-2.4,0.8c-0.3,0-0.5,0-0.7-0.1c-0.6,0.3-0.8,0.7-0.8,1.1c0,0.2,0.1,0.4,0.3,0.5c0.2,0.1,0.5,0.2,1,0.2h1.5
		c0.9,0,1.6,0.2,2.1,0.6c0.5,0.4,0.7,1,0.7,1.7c0,0.9-0.4,1.7-1.1,2.2c-0.8,0.5-1.9,0.7-3.3,0.7c-1.1,0-2-0.2-2.6-0.6
		c-0.6-0.4-0.9-1-0.9-1.8c0-0.5,0.2-1,0.5-1.4c0.3-0.4,0.8-0.6,1.4-0.8c-0.2-0.1-0.4-0.3-0.6-0.5s-0.2-0.5-0.2-0.7
		c0-0.3,0.1-0.6,0.2-0.8c0.2-0.2,0.4-0.5,0.8-0.7c-0.4-0.2-0.8-0.5-1.1-0.9c-0.3-0.4-0.4-0.9-0.4-1.5c0-0.9,0.3-1.7,0.8-2.2
		s1.4-0.8,2.4-0.8c0.4,0,0.9,0.1,1.2,0.2H223.1z M216.3,176.1c0,0.5,0.2,0.8,0.6,1.1c0.4,0.2,1,0.4,1.7,0.4c1.1,0,1.9-0.2,2.4-0.5
		c0.5-0.3,0.8-0.8,0.8-1.3c0-0.5-0.1-0.8-0.4-1c-0.3-0.2-0.8-0.3-1.6-0.3h-1.6c-0.6,0-1,0.1-1.4,0.4S216.3,175.6,216.3,176.1z
		 M217,168.9c0,0.6,0.2,1.1,0.5,1.4c0.3,0.3,0.8,0.5,1.4,0.5c1.3,0,1.9-0.6,1.9-1.8c0-1.3-0.6-1.9-1.9-1.9c-0.6,0-1.1,0.2-1.4,0.5
		S217,168.2,217,168.9z"/>
	<path fill="#EE2B2F" d="M234.3,174.7l-0.3-1.2h-0.1c-0.4,0.5-0.9,0.9-1.3,1.1c-0.4,0.2-1,0.3-1.6,0.3c-0.8,0-1.5-0.2-2-0.7
		c-0.5-0.4-0.7-1.1-0.7-1.9c0-1.7,1.4-2.6,4.1-2.7l1.5,0V169c0-0.7-0.1-1.2-0.4-1.5s-0.8-0.5-1.4-0.5c-0.7,0-1.5,0.2-2.4,0.7l-0.4-1
		c0.4-0.2,0.9-0.4,1.4-0.5c0.5-0.1,1-0.2,1.5-0.2c1,0,1.8,0.2,2.3,0.7s0.7,1.2,0.7,2.2v5.8H234.3z M231.3,173.8
		c0.8,0,1.4-0.2,1.9-0.7s0.7-1.1,0.7-1.9v-0.8l-1.3,0.1c-1,0-1.8,0.2-2.2,0.5c-0.5,0.3-0.7,0.7-0.7,1.3c0,0.5,0.1,0.8,0.4,1.1
		C230.4,173.7,230.8,173.8,231.3,173.8z"/>
	<path fill="#EE2B2F" d="M245.1,174.9c-1.1,0-2-0.4-2.6-1.2c-0.6-0.8-0.9-1.9-0.9-3.2c0-1.4,0.3-2.5,0.9-3.3s1.5-1.2,2.6-1.2
		c1.2,0,2.1,0.4,2.7,1.3h0.1l0.2-1.2h1v12.4h-1.3v-3.7c0-0.5,0-1,0.1-1.3h-0.1C247.2,174.4,246.3,174.9,245.1,174.9z M245.3,173.8
		c0.9,0,1.5-0.2,1.9-0.7c0.4-0.5,0.6-1.2,0.6-2.3v-0.3c0-1.2-0.2-2.1-0.6-2.6s-1-0.8-1.9-0.8c-0.8,0-1.3,0.3-1.7,0.9
		c-0.4,0.6-0.6,1.4-0.6,2.5s0.2,1.9,0.6,2.5S244.5,173.8,245.3,173.8z"/>
	<path fill="#EE2B2F" d="M253.1,166.1v5.6c0,0.7,0.2,1.2,0.5,1.6c0.3,0.3,0.8,0.5,1.5,0.5c0.9,0,1.6-0.2,2-0.7s0.6-1.3,0.6-2.4v-4.5
		h1.3v8.6h-1.1l-0.2-1.1h-0.1c-0.3,0.4-0.6,0.7-1.1,1c-0.5,0.2-1,0.3-1.6,0.3c-1,0-1.8-0.2-2.3-0.7c-0.5-0.5-0.8-1.3-0.8-2.4v-5.6
		H253.1z"/>
	<path fill="#EE2B2F" d="M265.3,174.9c-1.3,0-2.3-0.4-3-1.2c-0.7-0.8-1.1-1.8-1.1-3.2c0-1.4,0.3-2.5,1-3.3s1.6-1.2,2.7-1.2
		c1.1,0,1.9,0.4,2.5,1.1s0.9,1.6,0.9,2.8v0.8h-5.9c0,1,0.3,1.8,0.8,2.3c0.5,0.5,1.2,0.8,2,0.8c0.9,0,1.8-0.2,2.7-0.6v1.2
		c-0.5,0.2-0.9,0.3-1.3,0.4C266.4,174.8,265.9,174.9,265.3,174.9z M264.9,167.1c-0.7,0-1.2,0.2-1.6,0.7c-0.4,0.4-0.6,1.1-0.7,1.9
		h4.5c0-0.8-0.2-1.4-0.5-1.9C266.1,167.3,265.6,167.1,264.9,167.1z"/>
	<path fill="#EE2B2F" d="M274.6,166c0.4,0,0.7,0,1,0.1l-0.2,1.2c-0.4-0.1-0.7-0.1-0.9-0.1c-0.7,0-1.3,0.3-1.8,0.8s-0.7,1.3-0.7,2.1
		v4.6h-1.3v-8.6h1.1l0.1,1.6h0.1c0.3-0.6,0.7-1,1.1-1.3C273.5,166.1,274,166,274.6,166z"/>
	<path fill="#EE2B2F" d="M275.8,166.1h1.4l1.9,4.9c0.4,1.1,0.7,1.9,0.8,2.4h0.1c0.1-0.3,0.2-0.7,0.4-1.4c0.2-0.6,0.9-2.6,2.1-5.9
		h1.4l-3.7,9.8c-0.4,1-0.8,1.6-1.3,2.1c-0.5,0.4-1.1,0.6-1.8,0.6c-0.4,0-0.8,0-1.2-0.1v-1c0.3,0.1,0.6,0.1,1,0.1
		c0.9,0,1.5-0.5,1.9-1.5l0.5-1.2L275.8,166.1z"/>
	<path fill="#EE2B2F" d="M286.6,172.9l0.1,0.2c-0.1,0.5-0.3,1.1-0.6,1.8c-0.3,0.7-0.5,1.3-0.8,1.9h-1c0.1-0.5,0.3-1.2,0.5-2
		c0.2-0.8,0.3-1.4,0.4-1.9H286.6z"/>
	<path fill="#EE2B2F" d="M299.2,174.7v-5.5c0-0.7-0.2-1.2-0.5-1.6c-0.3-0.3-0.8-0.5-1.5-0.5c-0.9,0-1.6,0.2-2,0.7s-0.6,1.3-0.6,2.4
		v4.5h-1.3v-12.2h1.3v3.7c0,0.4,0,0.8-0.1,1.1h0.1c0.3-0.4,0.6-0.7,1.1-1c0.5-0.2,1-0.4,1.6-0.4c1,0,1.8,0.2,2.4,0.7
		s0.8,1.3,0.8,2.4v5.6H299.2z"/>
	<path fill="#EE2B2F" d="M303,163.8c0-0.3,0.1-0.5,0.2-0.7c0.1-0.1,0.3-0.2,0.5-0.2c0.2,0,0.4,0.1,0.5,0.2c0.2,0.1,0.2,0.4,0.2,0.6
		s-0.1,0.5-0.2,0.7c-0.2,0.1-0.3,0.2-0.5,0.2c-0.2,0-0.4-0.1-0.5-0.2C303.1,164.3,303,164.1,303,163.8z M304.4,174.7h-1.3v-8.6h1.3
		V174.7z"/>
	<path fill="#EE2B2F" d="M310,173.8c0.2,0,0.5,0,0.7-0.1c0.2,0,0.4-0.1,0.5-0.1v1c-0.1,0.1-0.3,0.1-0.6,0.2c-0.3,0-0.5,0.1-0.7,0.1
		c-1.7,0-2.5-0.9-2.5-2.6v-5.1h-1.2v-0.6l1.2-0.5l0.5-1.8h0.8v2h2.5v1h-2.5v5c0,0.5,0.1,0.9,0.4,1.2
		C309.2,173.7,309.5,173.8,310,173.8z"/>
	<path fill="#EE2B2F" d="M323.6,171.7c0,1-0.4,1.8-1.1,2.4c-0.7,0.6-1.7,0.8-3,0.8c-1.4,0-2.4-0.2-3.1-0.5v-1.3
		c0.5,0.2,1,0.4,1.5,0.5c0.6,0.1,1.1,0.2,1.6,0.2c0.9,0,1.6-0.2,2-0.5c0.4-0.3,0.7-0.8,0.7-1.4c0-0.4-0.1-0.7-0.2-1
		c-0.2-0.3-0.4-0.5-0.8-0.7c-0.4-0.2-0.9-0.5-1.7-0.7c-1.1-0.4-1.8-0.8-2.3-1.4c-0.5-0.5-0.7-1.2-0.7-2c0-0.9,0.3-1.6,1-2.1
		c0.7-0.5,1.5-0.8,2.6-0.8c1.1,0,2.2,0.2,3.1,0.6l-0.4,1.2c-0.9-0.4-1.9-0.6-2.8-0.6c-0.7,0-1.3,0.2-1.6,0.5
		c-0.4,0.3-0.6,0.7-0.6,1.3c0,0.4,0.1,0.7,0.2,1c0.1,0.3,0.4,0.5,0.7,0.7c0.3,0.2,0.9,0.4,1.6,0.7c1.2,0.4,2,0.9,2.5,1.4
		C323.4,170.3,323.6,170.9,323.6,171.7z"/>
	<path fill="#EE2B2F" d="M331,174.7l-0.3-1.2h-0.1c-0.4,0.5-0.9,0.9-1.3,1.1c-0.4,0.2-1,0.3-1.6,0.3c-0.8,0-1.5-0.2-2-0.7
		c-0.5-0.4-0.7-1.1-0.7-1.9c0-1.7,1.4-2.6,4.1-2.7l1.5,0V169c0-0.7-0.1-1.2-0.4-1.5s-0.8-0.5-1.4-0.5c-0.7,0-1.5,0.2-2.4,0.7l-0.4-1
		c0.4-0.2,0.9-0.4,1.4-0.5c0.5-0.1,1-0.2,1.5-0.2c1,0,1.8,0.2,2.3,0.7s0.7,1.2,0.7,2.2v5.8H331z M328.1,173.8c0.8,0,1.4-0.2,1.9-0.7
		s0.7-1.1,0.7-1.9v-0.8l-1.3,0.1c-1,0-1.8,0.2-2.2,0.5c-0.5,0.3-0.7,0.7-0.7,1.3c0,0.5,0.1,0.8,0.4,1.1
		C327.2,173.7,327.6,173.8,328.1,173.8z"/>
	<path fill="#EE2B2F" d="M336.6,174.7l-3.2-8.6h1.4l1.8,5.1c0.4,1.2,0.7,2,0.7,2.3h0.1c0.1-0.3,0.2-0.8,0.5-1.7s1-2.8,2.1-5.7h1.4
		l-3.2,8.6H336.6z"/>
	<path fill="#EE2B2F" d="M346.3,174.9c-1.3,0-2.3-0.4-3-1.2c-0.7-0.8-1.1-1.8-1.1-3.2c0-1.4,0.3-2.5,1-3.3s1.6-1.2,2.7-1.2
		c1.1,0,1.9,0.4,2.5,1.1s0.9,1.6,0.9,2.8v0.8h-5.9c0,1,0.3,1.8,0.8,2.3c0.5,0.5,1.2,0.8,2,0.8c0.9,0,1.8-0.2,2.7-0.6v1.2
		c-0.5,0.2-0.9,0.3-1.3,0.4C347.4,174.8,346.9,174.9,346.3,174.9z M346,167.1c-0.7,0-1.2,0.2-1.6,0.7c-0.4,0.4-0.6,1.1-0.7,1.9h4.5
		c0-0.8-0.2-1.4-0.5-1.9C347.2,167.3,346.6,167.1,346,167.1z"/>
	<path fill="#EE2B2F" d="M365.9,169c0,1.5-0.3,2.7-0.9,3.6c-0.6,1-1.4,1.6-2.5,2l2.7,2.8h-1.9l-2.2-2.6l-0.4,0c-1.7,0-3-0.5-3.9-1.5
		s-1.4-2.5-1.4-4.4c0-1.9,0.5-3.3,1.4-4.3c0.9-1,2.2-1.5,3.9-1.5c1.6,0,2.9,0.5,3.8,1.6S365.9,167.2,365.9,169z M356.8,169
		c0,1.5,0.3,2.7,1,3.5c0.7,0.8,1.6,1.2,2.9,1.2c1.3,0,2.2-0.4,2.9-1.2c0.6-0.8,1-2,1-3.5c0-1.5-0.3-2.7-1-3.5
		c-0.6-0.8-1.6-1.2-2.9-1.2c-1.3,0-2.2,0.4-2.9,1.2C357.2,166.3,356.8,167.5,356.8,169z"/>
	<path fill="#EE2B2F" d="M369.5,166.1v5.6c0,0.7,0.2,1.2,0.5,1.6c0.3,0.3,0.8,0.5,1.5,0.5c0.9,0,1.6-0.2,2-0.7s0.6-1.3,0.6-2.4v-4.5
		h1.3v8.6h-1.1l-0.2-1.1H374c-0.3,0.4-0.6,0.7-1.1,1c-0.5,0.2-1,0.3-1.6,0.3c-1,0-1.8-0.2-2.3-0.7c-0.5-0.5-0.8-1.3-0.8-2.4v-5.6
		H369.5z"/>
	<path fill="#EE2B2F" d="M381.7,174.9c-1.3,0-2.3-0.4-3-1.2c-0.7-0.8-1.1-1.8-1.1-3.2c0-1.4,0.3-2.5,1-3.3s1.6-1.2,2.7-1.2
		c1.1,0,1.9,0.4,2.5,1.1s0.9,1.6,0.9,2.8v0.8H379c0,1,0.3,1.8,0.8,2.3c0.5,0.5,1.2,0.8,2,0.8c0.9,0,1.8-0.2,2.7-0.6v1.2
		c-0.5,0.2-0.9,0.3-1.3,0.4C382.8,174.8,382.3,174.9,381.7,174.9z M381.4,167.1c-0.7,0-1.2,0.2-1.6,0.7c-0.4,0.4-0.6,1.1-0.7,1.9
		h4.5c0-0.8-0.2-1.4-0.5-1.9C382.6,167.3,382.1,167.1,381.4,167.1z"/>
	<path fill="#EE2B2F" d="M391,166c0.4,0,0.7,0,1,0.1l-0.2,1.2c-0.4-0.1-0.7-0.1-0.9-0.1c-0.7,0-1.3,0.3-1.8,0.8s-0.7,1.3-0.7,2.1
		v4.6h-1.3v-8.6h1.1l0.1,1.6h0.1c0.3-0.6,0.7-1,1.1-1.3C390,166.1,390.5,166,391,166z"/>
	<path fill="#EE2B2F" d="M392.3,166.1h1.4l1.9,4.9c0.4,1.1,0.7,1.9,0.8,2.4h0.1c0.1-0.3,0.2-0.7,0.4-1.4c0.2-0.6,0.9-2.6,2.1-5.9
		h1.4l-3.7,9.8c-0.4,1-0.8,1.6-1.3,2.1c-0.5,0.4-1.1,0.6-1.8,0.6c-0.4,0-0.8,0-1.2-0.1v-1c0.3,0.1,0.6,0.1,1,0.1
		c0.9,0,1.5-0.5,1.9-1.5l0.5-1.2L392.3,166.1z"/>
	<path fill="#EE2B2F" d="M413.3,166.6c0,1.2-0.4,2-1.2,2.7s-1.9,0.9-3.4,0.9h-1.3v4.5H406v-11.4h3
		C411.8,163.3,413.3,164.4,413.3,166.6z M407.4,169.1h1.2c1.2,0,2-0.2,2.6-0.6c0.5-0.4,0.8-1,0.8-1.8c0-0.8-0.2-1.3-0.7-1.7
		c-0.5-0.4-1.3-0.6-2.3-0.6h-1.5V169.1z"/>
	<path fill="#EE2B2F" d="M420.7,174.7l-0.3-1.2h-0.1c-0.4,0.5-0.9,0.9-1.3,1.1c-0.4,0.2-1,0.3-1.6,0.3c-0.8,0-1.5-0.2-2-0.7
		c-0.5-0.4-0.7-1.1-0.7-1.9c0-1.7,1.4-2.6,4.1-2.7l1.5,0V169c0-0.7-0.1-1.2-0.4-1.5s-0.8-0.5-1.4-0.5c-0.7,0-1.5,0.2-2.4,0.7l-0.4-1
		c0.4-0.2,0.9-0.4,1.4-0.5c0.5-0.1,1-0.2,1.5-0.2c1,0,1.8,0.2,2.3,0.7s0.7,1.2,0.7,2.2v5.8H420.7z M417.8,173.8
		c0.8,0,1.4-0.2,1.9-0.7s0.7-1.1,0.7-1.9v-0.8l-1.3,0.1c-1,0-1.8,0.2-2.2,0.5c-0.5,0.3-0.7,0.7-0.7,1.3c0,0.5,0.1,0.8,0.4,1.1
		C416.9,173.7,417.3,173.8,417.8,173.8z"/>
	<path fill="#EE2B2F" d="M428.3,166c0.4,0,0.7,0,1,0.1l-0.2,1.2c-0.4-0.1-0.7-0.1-0.9-0.1c-0.7,0-1.3,0.3-1.8,0.8s-0.7,1.3-0.7,2.1
		v4.6h-1.3v-8.6h1.1l0.1,1.6h0.1c0.3-0.6,0.7-1,1.1-1.3C427.2,166.1,427.7,166,428.3,166z"/>
	<path fill="#EE2B2F" d="M436.2,174.7l-0.3-1.2h-0.1c-0.4,0.5-0.9,0.9-1.3,1.1c-0.4,0.2-1,0.3-1.6,0.3c-0.8,0-1.5-0.2-2-0.7
		c-0.5-0.4-0.7-1.1-0.7-1.9c0-1.7,1.4-2.6,4.1-2.7l1.5,0V169c0-0.7-0.1-1.2-0.4-1.5s-0.8-0.5-1.4-0.5c-0.7,0-1.5,0.2-2.4,0.7l-0.4-1
		c0.4-0.2,0.9-0.4,1.4-0.5c0.5-0.1,1-0.2,1.5-0.2c1,0,1.8,0.2,2.3,0.7s0.7,1.2,0.7,2.2v5.8H436.2z M433.2,173.8
		c0.8,0,1.4-0.2,1.9-0.7s0.7-1.1,0.7-1.9v-0.8l-1.3,0.1c-1,0-1.8,0.2-2.2,0.5c-0.5,0.3-0.7,0.7-0.7,1.3c0,0.5,0.1,0.8,0.4,1.1
		C432.3,173.7,432.7,173.8,433.2,173.8z"/>
	<path fill="#EE2B2F" d="M450.7,174.7v-5.6c0-0.7-0.1-1.2-0.4-1.5c-0.3-0.3-0.7-0.5-1.4-0.5c-0.8,0-1.4,0.2-1.8,0.7
		c-0.4,0.5-0.6,1.2-0.6,2.1v4.8h-1.3v-5.6c0-0.7-0.1-1.2-0.4-1.5c-0.3-0.3-0.7-0.5-1.4-0.5c-0.8,0-1.4,0.2-1.8,0.7
		c-0.4,0.5-0.6,1.3-0.6,2.4v4.5h-1.3v-8.6h1.1l0.2,1.2h0.1c0.2-0.4,0.6-0.7,1-1s0.9-0.4,1.5-0.4c1.3,0,2.2,0.5,2.6,1.5h0.1
		c0.3-0.4,0.6-0.8,1.1-1.1s1-0.4,1.7-0.4c1,0,1.7,0.2,2.2,0.7c0.5,0.5,0.7,1.3,0.7,2.4v5.6H450.7z"/>
	<path fill="#EE2B2F" d="M458.3,174.9c-1.3,0-2.3-0.4-3-1.2c-0.7-0.8-1.1-1.8-1.1-3.2c0-1.4,0.3-2.5,1-3.3s1.6-1.2,2.7-1.2
		c1.1,0,1.9,0.4,2.5,1.1s0.9,1.6,0.9,2.8v0.8h-5.9c0,1,0.3,1.8,0.8,2.3c0.5,0.5,1.2,0.8,2,0.8c0.9,0,1.8-0.2,2.7-0.6v1.2
		c-0.5,0.2-0.9,0.3-1.3,0.4C459.4,174.8,458.9,174.9,458.3,174.9z M457.9,167.1c-0.7,0-1.2,0.2-1.6,0.7c-0.4,0.4-0.7,1.1-0.7,1.9
		h4.5c0-0.8-0.2-1.4-0.5-1.9C459.1,167.3,458.6,167.1,457.9,167.1z"/>
	<path fill="#EE2B2F" d="M466.4,173.8c0.2,0,0.4,0,0.7-0.1c0.2,0,0.4-0.1,0.5-0.1v1c-0.1,0.1-0.3,0.1-0.6,0.2
		c-0.3,0-0.5,0.1-0.7,0.1c-1.7,0-2.5-0.9-2.5-2.6v-5.1h-1.2v-0.6l1.2-0.5l0.5-1.8h0.8v2h2.5v1H465v5c0,0.5,0.1,0.9,0.4,1.2
		C465.7,173.7,466,173.8,466.4,173.8z"/>
	<path fill="#EE2B2F" d="M472.9,174.9c-1.3,0-2.3-0.4-3-1.2c-0.7-0.8-1.1-1.8-1.1-3.2c0-1.4,0.3-2.5,1-3.3s1.6-1.2,2.7-1.2
		c1.1,0,1.9,0.4,2.5,1.1s0.9,1.6,0.9,2.8v0.8h-5.9c0,1,0.3,1.8,0.8,2.3c0.5,0.5,1.2,0.8,2,0.8c0.9,0,1.8-0.2,2.7-0.6v1.2
		c-0.5,0.2-0.9,0.3-1.3,0.4C474,174.8,473.5,174.9,472.9,174.9z M472.6,167.1c-0.7,0-1.2,0.2-1.6,0.7c-0.4,0.4-0.7,1.1-0.7,1.9h4.5
		c0-0.8-0.2-1.4-0.5-1.9C473.8,167.3,473.2,167.1,472.6,167.1z"/>
	<path fill="#EE2B2F" d="M482.2,166c0.4,0,0.7,0,1,0.1l-0.2,1.2c-0.4-0.1-0.7-0.1-0.9-0.1c-0.7,0-1.3,0.3-1.8,0.8s-0.7,1.3-0.7,2.1
		v4.6h-1.3v-8.6h1.1l0.1,1.6h0.1c0.3-0.6,0.7-1,1.1-1.3C481.2,166.1,481.7,166,482.2,166z"/>
	<path fill="#EE2B2F" d="M490.3,172.4c0,0.8-0.3,1.4-0.9,1.8s-1.4,0.6-2.5,0.6c-1.1,0-2-0.2-2.7-0.5v-1.2c0.4,0.2,0.9,0.4,1.3,0.5
		c0.5,0.1,0.9,0.2,1.4,0.2c0.7,0,1.2-0.1,1.6-0.3c0.4-0.2,0.5-0.5,0.5-1c0-0.3-0.1-0.6-0.4-0.9s-0.9-0.5-1.7-0.8
		c-0.8-0.3-1.4-0.6-1.7-0.8s-0.6-0.5-0.8-0.8s-0.2-0.6-0.2-1c0-0.7,0.3-1.2,0.9-1.7c0.6-0.4,1.3-0.6,2.3-0.6c0.9,0,1.8,0.2,2.7,0.6
		l-0.5,1.1c-0.9-0.4-1.6-0.5-2.3-0.5c-0.6,0-1.1,0.1-1.4,0.3s-0.5,0.5-0.5,0.8c0,0.2,0.1,0.4,0.2,0.6s0.3,0.3,0.6,0.5
		c0.3,0.1,0.8,0.4,1.5,0.6c1,0.4,1.7,0.7,2.1,1.1C490.2,171.3,490.3,171.8,490.3,172.4z"/>
	<path fill="#EE2B2F" d="M499.4,173.8c0.2,0,0.4,0,0.7-0.1c0.2,0,0.4-0.1,0.5-0.1v1c-0.1,0.1-0.3,0.1-0.6,0.2
		c-0.3,0-0.5,0.1-0.7,0.1c-1.7,0-2.5-0.9-2.5-2.6v-5.1h-1.2v-0.6l1.2-0.5l0.5-1.8h0.8v2h2.5v1H498v5c0,0.5,0.1,0.9,0.4,1.2
		C498.6,173.7,498.9,173.8,499.4,173.8z"/>
	<path fill="#EE2B2F" d="M509.6,170.4c0,1.4-0.4,2.5-1.1,3.3s-1.7,1.2-2.9,1.2c-0.8,0-1.4-0.2-2-0.5s-1.1-0.9-1.4-1.5
		c-0.3-0.7-0.5-1.5-0.5-2.4c0-1.4,0.3-2.5,1-3.3c0.7-0.8,1.7-1.2,2.9-1.2c1.2,0,2.1,0.4,2.9,1.2C509.3,168,509.6,169.1,509.6,170.4z
		 M503.1,170.4c0,1.1,0.2,1.9,0.7,2.5s1.1,0.9,1.9,0.9c0.8,0,1.5-0.3,1.9-0.9c0.4-0.6,0.7-1.4,0.7-2.5c0-1.1-0.2-1.9-0.7-2.5
		c-0.4-0.6-1.1-0.8-1.9-0.8c-0.8,0-1.5,0.3-1.9,0.8C503.3,168.5,503.1,169.3,503.1,170.4z"/>
	<path fill="#EE2B2F" d="M521.6,172.4c0,0.8-0.3,1.4-0.9,1.8s-1.4,0.6-2.5,0.6c-1.1,0-2-0.2-2.7-0.5v-1.2c0.4,0.2,0.9,0.4,1.3,0.5
		c0.5,0.1,0.9,0.2,1.4,0.2c0.7,0,1.2-0.1,1.6-0.3c0.4-0.2,0.5-0.5,0.5-1c0-0.3-0.1-0.6-0.4-0.9s-0.9-0.5-1.7-0.8
		c-0.8-0.3-1.4-0.6-1.7-0.8s-0.6-0.5-0.8-0.8s-0.2-0.6-0.2-1c0-0.7,0.3-1.2,0.9-1.7c0.6-0.4,1.3-0.6,2.3-0.6c0.9,0,1.8,0.2,2.7,0.6
		l-0.5,1.1c-0.9-0.4-1.6-0.5-2.3-0.5c-0.6,0-1.1,0.1-1.4,0.3s-0.5,0.5-0.5,0.8c0,0.2,0.1,0.4,0.2,0.6s0.3,0.3,0.6,0.5
		c0.3,0.1,0.8,0.4,1.5,0.6c1,0.4,1.7,0.7,2.1,1.1C521.4,171.3,521.6,171.8,521.6,172.4z"/>
	<path fill="#EE2B2F" d="M529,174.7l-0.3-1.2h-0.1c-0.4,0.5-0.9,0.9-1.3,1.1c-0.4,0.2-1,0.3-1.6,0.3c-0.8,0-1.5-0.2-2-0.7
		c-0.5-0.4-0.7-1.1-0.7-1.9c0-1.7,1.4-2.6,4.1-2.7l1.5,0V169c0-0.7-0.1-1.2-0.4-1.5s-0.8-0.5-1.4-0.5c-0.7,0-1.5,0.2-2.4,0.7l-0.4-1
		c0.4-0.2,0.9-0.4,1.4-0.5c0.5-0.1,1-0.2,1.5-0.2c1,0,1.8,0.2,2.3,0.7s0.7,1.2,0.7,2.2v5.8H529z M526,173.8c0.8,0,1.4-0.2,1.9-0.7
		s0.7-1.1,0.7-1.9v-0.8l-1.3,0.1c-1,0-1.8,0.2-2.2,0.5c-0.5,0.3-0.7,0.7-0.7,1.3c0,0.5,0.1,0.8,0.4,1.1
		C525.1,173.7,525.5,173.8,526,173.8z"/>
	<path fill="#EE2B2F" d="M534.5,174.7l-3.2-8.6h1.4l1.8,5.1c0.4,1.2,0.7,2,0.7,2.3h0.1c0.1-0.3,0.2-0.8,0.5-1.7s1-2.8,2.1-5.7h1.4
		l-3.2,8.6H534.5z"/>
	<path fill="#EE2B2F" d="M544.2,174.9c-1.3,0-2.3-0.4-3-1.2c-0.7-0.8-1.1-1.8-1.1-3.2c0-1.4,0.3-2.5,1-3.3s1.6-1.2,2.7-1.2
		c1.1,0,1.9,0.4,2.5,1.1s0.9,1.6,0.9,2.8v0.8h-5.9c0,1,0.3,1.8,0.8,2.3c0.5,0.5,1.2,0.8,2,0.8c0.9,0,1.8-0.2,2.7-0.6v1.2
		c-0.5,0.2-0.9,0.3-1.3,0.4C545.3,174.8,544.8,174.9,544.2,174.9z M543.9,167.1c-0.7,0-1.2,0.2-1.6,0.7c-0.4,0.4-0.7,1.1-0.7,1.9
		h4.5c0-0.8-0.2-1.4-0.5-1.9C545.1,167.3,544.6,167.1,543.9,167.1z"/>
	<path fill="#EE2B2F" d="M553.6,163.8c0-0.3,0.1-0.5,0.2-0.7c0.1-0.1,0.3-0.2,0.5-0.2c0.2,0,0.4,0.1,0.5,0.2
		c0.2,0.1,0.2,0.4,0.2,0.6s-0.1,0.5-0.2,0.7c-0.2,0.1-0.3,0.2-0.5,0.2c-0.2,0-0.4-0.1-0.5-0.2C553.7,164.3,553.6,164.1,553.6,163.8z
		 M555,174.7h-1.3v-8.6h1.3V174.7z"/>
	<path fill="#EE2B2F" d="M560.6,173.8c0.2,0,0.4,0,0.7-0.1c0.2,0,0.4-0.1,0.5-0.1v1c-0.1,0.1-0.3,0.1-0.6,0.2
		c-0.3,0-0.5,0.1-0.7,0.1c-1.7,0-2.5-0.9-2.5-2.6v-5.1h-1.2v-0.6l1.2-0.5l0.5-1.8h0.8v2h2.5v1h-2.5v5c0,0.5,0.1,0.9,0.4,1.2
		C559.8,173.7,560.1,173.8,560.6,173.8z"/>
	<path fill="#EE2B2F" d="M570.4,173.8c0.2,0,0.4,0,0.7-0.1c0.2,0,0.4-0.1,0.5-0.1v1c-0.1,0.1-0.3,0.1-0.6,0.2
		c-0.3,0-0.5,0.1-0.7,0.1c-1.7,0-2.5-0.9-2.5-2.6v-5.1h-1.2v-0.6l1.2-0.5l0.5-1.8h0.8v2h2.5v1H569v5c0,0.5,0.1,0.9,0.4,1.2
		C569.6,173.7,569.9,173.8,570.4,173.8z"/>
	<path fill="#EE2B2F" d="M580.6,170.4c0,1.4-0.4,2.5-1.1,3.3s-1.7,1.2-2.9,1.2c-0.8,0-1.4-0.2-2-0.5s-1.1-0.9-1.4-1.5
		c-0.3-0.7-0.5-1.5-0.5-2.4c0-1.4,0.3-2.5,1-3.3c0.7-0.8,1.7-1.2,2.9-1.2c1.2,0,2.1,0.4,2.9,1.2C580.3,168,580.6,169.1,580.6,170.4z
		 M574.1,170.4c0,1.1,0.2,1.9,0.7,2.5s1.1,0.9,1.9,0.9c0.8,0,1.5-0.3,1.9-0.9c0.4-0.6,0.7-1.4,0.7-2.5c0-1.1-0.2-1.9-0.7-2.5
		c-0.4-0.6-1.1-0.8-1.9-0.8c-0.8,0-1.5,0.3-1.9,0.8C574.3,168.5,574.1,169.3,574.1,170.4z"/>
	<path fill="#EE2B2F" d="M589.8,173.8c0.2,0,0.4,0,0.7-0.1c0.2,0,0.4-0.1,0.5-0.1v1c-0.1,0.1-0.3,0.1-0.6,0.2
		c-0.3,0-0.5,0.1-0.7,0.1c-1.7,0-2.5-0.9-2.5-2.6v-5.1h-1.2v-0.6l1.2-0.5l0.5-1.8h0.8v2h2.5v1h-2.5v5c0,0.5,0.1,0.9,0.4,1.2
		C589.1,173.7,589.4,173.8,589.8,173.8z"/>
	<path fill="#EE2B2F" d="M598.6,174.7v-5.5c0-0.7-0.2-1.2-0.5-1.6c-0.3-0.3-0.8-0.5-1.5-0.5c-0.9,0-1.6,0.2-2,0.7s-0.6,1.3-0.6,2.4
		v4.5h-1.3v-12.2h1.3v3.7c0,0.4,0,0.8-0.1,1.1h0.1c0.3-0.4,0.6-0.7,1.1-1c0.5-0.2,1-0.4,1.6-0.4c1,0,1.8,0.2,2.4,0.7
		s0.8,1.3,0.8,2.4v5.6H598.6z"/>
	<path fill="#EE2B2F" d="M602.4,163.8c0-0.3,0.1-0.5,0.2-0.7c0.1-0.1,0.3-0.2,0.5-0.2c0.2,0,0.4,0.1,0.5,0.2
		c0.2,0.1,0.2,0.4,0.2,0.6s-0.1,0.5-0.2,0.7c-0.2,0.1-0.3,0.2-0.5,0.2c-0.2,0-0.4-0.1-0.5-0.2C602.5,164.3,602.4,164.1,602.4,163.8z
		 M603.8,174.7h-1.3v-8.6h1.3V174.7z"/>
	<path fill="#EE2B2F" d="M612.1,172.4c0,0.8-0.3,1.4-0.9,1.8s-1.4,0.6-2.5,0.6c-1.1,0-2-0.2-2.7-0.5v-1.2c0.4,0.2,0.9,0.4,1.3,0.5
		c0.5,0.1,0.9,0.2,1.4,0.2c0.7,0,1.2-0.1,1.6-0.3c0.4-0.2,0.5-0.5,0.5-1c0-0.3-0.1-0.6-0.4-0.9s-0.9-0.5-1.7-0.8
		c-0.8-0.3-1.4-0.6-1.7-0.8s-0.6-0.5-0.8-0.8s-0.2-0.6-0.2-1c0-0.7,0.3-1.2,0.9-1.7c0.6-0.4,1.3-0.6,2.3-0.6c0.9,0,1.8,0.2,2.7,0.6
		l-0.5,1.1c-0.9-0.4-1.6-0.5-2.3-0.5c-0.6,0-1.1,0.1-1.4,0.3s-0.5,0.5-0.5,0.8c0,0.2,0.1,0.4,0.2,0.6s0.3,0.3,0.6,0.5
		c0.3,0.1,0.8,0.4,1.5,0.6c1,0.4,1.7,0.7,2.1,1.1C611.9,171.3,612.1,171.8,612.1,172.4z"/>
	<path fill="#EE2B2F" d="M619.7,174.7h-1.3v-12.2h1.3V174.7z"/>
	<path fill="#EE2B2F" d="M622.3,163.8c0-0.3,0.1-0.5,0.2-0.7c0.1-0.1,0.3-0.2,0.5-0.2c0.2,0,0.4,0.1,0.5,0.2
		c0.2,0.1,0.2,0.4,0.2,0.6s-0.1,0.5-0.2,0.7c-0.2,0.1-0.3,0.2-0.5,0.2c-0.2,0-0.4-0.1-0.5-0.2C622.4,164.3,622.3,164.1,622.3,163.8z
		 M623.7,174.7h-1.3v-8.6h1.3V174.7z"/>
	<path fill="#EE2B2F" d="M632,172.4c0,0.8-0.3,1.4-0.9,1.8s-1.4,0.6-2.5,0.6c-1.1,0-2-0.2-2.7-0.5v-1.2c0.4,0.2,0.9,0.4,1.3,0.5
		c0.5,0.1,0.9,0.2,1.4,0.2c0.7,0,1.2-0.1,1.6-0.3c0.4-0.2,0.5-0.5,0.5-1c0-0.3-0.1-0.6-0.4-0.9s-0.9-0.5-1.7-0.8
		c-0.8-0.3-1.4-0.6-1.7-0.8s-0.6-0.5-0.8-0.8s-0.2-0.6-0.2-1c0-0.7,0.3-1.2,0.9-1.7c0.6-0.4,1.3-0.6,2.3-0.6c0.9,0,1.8,0.2,2.7,0.6
		l-0.5,1.1c-0.9-0.4-1.6-0.5-2.3-0.5c-0.6,0-1.1,0.1-1.4,0.3s-0.5,0.5-0.5,0.8c0,0.2,0.1,0.4,0.2,0.6s0.3,0.3,0.6,0.5
		c0.3,0.1,0.8,0.4,1.5,0.6c1,0.4,1.7,0.7,2.1,1.1C631.8,171.3,632,171.8,632,172.4z"/>
	<path fill="#EE2B2F" d="M636.9,173.8c0.2,0,0.4,0,0.7-0.1c0.2,0,0.4-0.1,0.5-0.1v1c-0.1,0.1-0.3,0.1-0.6,0.2
		c-0.3,0-0.5,0.1-0.7,0.1c-1.7,0-2.5-0.9-2.5-2.6v-5.1H633v-0.6l1.2-0.5l0.5-1.8h0.8v2h2.5v1h-2.5v5c0,0.5,0.1,0.9,0.4,1.2
		C636.1,173.7,636.4,173.8,636.9,173.8z"/>
	<path fill="#EE2B2F" d="M639.6,173.9c0-0.3,0.1-0.6,0.2-0.8c0.2-0.2,0.4-0.3,0.7-0.3c0.3,0,0.5,0.1,0.7,0.3
		c0.2,0.2,0.3,0.4,0.3,0.8c0,0.3-0.1,0.6-0.3,0.8c-0.2,0.2-0.4,0.3-0.7,0.3c-0.3,0-0.5-0.1-0.7-0.2
		C639.7,174.5,639.6,174.3,639.6,173.9z"/>
</g>
</svg>
