<?xml version="1.0" encoding="UTF-8" standalone="no"?>
<svg width="35px" height="37px" viewBox="0 0 35 37" version="1.1" xmlns="http://www.w3.org/2000/svg" xmlns:xlink="http://www.w3.org/1999/xlink" xmlns:sketch="http://www.bohemiancoding.com/sketch/ns">
    <!-- Generator: Sketch 3.3.2 (12043) - http://www.bohemiancoding.com/sketch -->
    <title>Imported Layers</title>
    <desc>Created with Sketch.</desc>
    <defs></defs>
    <g id="Page-1" stroke="none" stroke-width="1" fill="none" fill-rule="evenodd" sketch:type="MSPage">
        <g id="Create-An-Account-Page" sketch:type="MSArtboardGroup" transform="translate(-129.000000, -794.000000)" stroke-linecap="round" stroke="#58595B" stroke-linejoin="round">
            <g id="Content" sketch:type="MSLayerGroup">
                <g id="Imported-Layers-+-Permissions-n-shit-f" transform="translate(130.000000, 795.365234)" sketch:type="MSShapeGroup">
                    <path d="M0,0 L33,0 L33,34.5 L0,34.5 L0,0 Z M16.5,21 L16.5,10.5 L16.5,21 Z M25.5465,21 L25.5465,18 L25.5465,21 Z M7.5,12 L7.5,4.5 L7.5,12 Z M7.5,21 L7.5,15 L7.5,21 Z M25.5465,15 L25.5465,4.5 L25.5465,15 Z M16.5,7.5 L16.5,4.5 L16.5,7.5 Z M22.5465,15 L28.5465,15 L28.5465,18 L22.5465,18 L22.5465,15 Z M13.5,7.5 L19.5,7.5 L19.5,10.5 L13.5,10.5 L13.5,7.5 Z M4.5,12 L10.5,12 L10.5,15 L4.5,15 L4.5,12 Z M23.313,27.75 C23.313,26.5095 24.321,25.5 25.563,25.5 C26.805,25.5 27.813,26.5095 27.813,27.75 C27.813,28.9935 26.805,30 25.563,30 C24.321,30 23.313,28.9935 23.313,27.75 L23.313,27.75 Z M14.25,27.75 C14.25,26.5095 15.258,25.5 16.5,25.5 C17.742,25.5 18.75,26.5095 18.75,27.75 C18.75,28.9935 17.742,30 16.5,30 C15.258,30 14.25,28.9935 14.25,27.75 L14.25,27.75 Z M5.25,27.75 C5.25,26.5095 6.258,25.5 7.5,25.5 C8.742,25.5 9.75,26.5095 9.75,27.75 C9.75,28.9935 8.742,30 7.5,30 C6.258,30 5.25,28.9935 5.25,27.75 L5.25,27.75 Z" id="Imported-Layers"></path>
                </g>
            </g>
        </g>
    </g>
</svg>