<?xml version="1.0" encoding="utf-8"?>
<!-- Generator: Adobe Illustrator 18.0.0, SVG Export Plug-In . SVG Version: 6.00 Build 0)  -->
<!DOCTYPE svg PUBLIC "-//W3C//DTD SVG 1.1//EN" "http://www.w3.org/Graphics/SVG/1.1/DTD/svg11.dtd">
<svg version="1.1" id="Layer_1" xmlns="http://www.w3.org/2000/svg" xmlns:xlink="http://www.w3.org/1999/xlink" x="0px" y="0px"
	 viewBox="-6.7 93.9 100 39.1" enable-background="new -6.7 93.9 100 39.1" xml:space="preserve">
<g>
	<g>
		<path fill="#F2F2F2" d="M6.8,103.5c-0.5,0-1,0.1-1.2,0.3c-0.3,0.2-0.5,0.6-0.5,1c0,0.5,0.2,0.8,0.5,1c0.3,0.2,1,0.5,2.1,0.8
			c1.1,0.3,1.9,0.7,2.4,1.1c0.6,0.5,0.9,1.1,0.9,2.1c0,1-0.4,1.7-1,2.3c-0.7,0.6-1.6,1-2.8,1c-1.6,0-3-0.6-4.4-1.7l1.1-1.3
			c1,1,2.2,1.4,3.2,1.4c0.6,0,1-0.1,1.3-0.4c0.3-0.3,0.5-0.6,0.5-1c0-0.4-0.2-0.8-0.5-1c-0.3-0.2-0.9-0.5-1.6-0.7s-1.3-0.4-1.7-0.5
			s-0.8-0.4-1-0.7c-0.6-0.5-1-1.2-1-2.2s0.4-1.7,1-2.3c0.7-0.6,1.5-0.8,2.6-0.8c0.7,0,1.3,0.1,2,0.4c0.7,0.2,1.2,0.6,1.7,1l-1,1.3
			c-0.3-0.3-0.8-0.5-1.2-0.7C7.9,103.6,7.3,103.5,6.8,103.5z"/>
		<path fill="#F2F2F2" d="M18.2,112.9h-1.9v-4.2l-3.9-6.5h1.9l2.9,4.9l2.9-4.9H22l-3.9,6.5L18.2,112.9L18.2,112.9z"/>
		<path fill="#F2F2F2" d="M26.3,112.9h-1.7v-10.8h2.8l3.1,6.8l3.1-6.8h2.8v10.8h-1.7v-8.4l-3.6,7.4h-1l-3.6-7.4v8.4
			C26.5,112.9,26.3,112.9,26.3,112.9z"/>
		<path fill="#F2F2F2" d="M47.4,103.1c0.8,0.7,1,1.6,1,2.9c0,1.2-0.4,2.3-1.1,2.9c-0.8,0.6-1.9,0.9-3.4,0.9h-1.8v3.1h-1.8v-10.8h3.6
			C45.5,102.1,46.6,102.5,47.4,103.1z M46.2,107.5c0.4-0.4,0.6-1,0.6-1.7c0-0.7-0.2-1.2-0.7-1.6c-0.5-0.3-1.1-0.5-2.1-0.5h-1.8v4.3
			h2C45.1,108.1,45.8,107.9,46.2,107.5z"/>
		<path fill="#F2F2F2" d="M60.3,111.3c-1,1.1-2.4,1.6-3.9,1.6s-2.9-0.6-3.9-1.6c-1-1-1.6-2.4-1.6-4c0-1.6,0.6-2.9,1.6-4
			c1-1,2.4-1.6,3.9-1.6s2.9,0.6,3.9,1.6s1.6,2.4,1.6,4C62,109,61.4,110.3,60.3,111.3z M59,104.7c-0.7-0.8-1.6-1.1-2.6-1.1
			s-1.9,0.4-2.6,1.1c-0.7,0.8-1,1.7-1,2.8c0,1,0.4,2,1,2.8c0.7,0.8,1.6,1.1,2.6,1.1s1.9-0.4,2.6-1.1c0.7-0.8,1-1.7,1-2.8
			C60.2,106.4,59.8,105.4,59,104.7z"/>
		<path fill="#F2F2F2" d="M73.6,105.6c0,1.8-0.8,2.9-2.3,3.3l2.8,3.9h-2.2l-2.5-3.5h-2.3v3.6h-1.7v-10.8h3.9c1.6,0,2.8,0.3,3.4,0.9
			C73.3,103.5,73.6,104.4,73.6,105.6z M71.3,107.2c0.4-0.3,0.6-0.9,0.6-1.5c0-0.6-0.2-1.1-0.6-1.4c-0.4-0.3-1-0.4-2-0.4h-2.2v3.8
			h2.2C70.2,107.6,70.9,107.4,71.3,107.2z"/>
		<path fill="#F2F2F2" d="M81.1,103.8v9h-1.7v-9h-3.2v-1.6h8.1v1.6H81.1z"/>
	</g>
	<rect x="-5.7" y="94.9" fill="none" stroke="#F2F2F2" stroke-width="2" stroke-miterlimit="10" width="98" height="25.7"/>
</g>
<g>
	<path fill="#F2F2F2" d="M27,133h-2.6v-6.1h2.3c0.5,0,0.8,0,1.1,0.1c0.3,0.1,0.6,0.2,0.7,0.5c0.2,0.3,0.5,0.7,0.5,1.1
		c0,0.5-0.1,0.9-0.5,1.1c-0.1,0.1-0.2,0.1-0.2,0.1s-0.1,0-0.2,0.1c0.3,0.1,0.7,0.2,0.9,0.6c0.2,0.2,0.3,0.6,0.3,1s-0.1,0.8-0.5,1.1
		C28.3,132.9,27.7,133,27,133z M25.4,129.5h1.2c0.8,0,1.1-0.2,1.1-0.8c0-0.3-0.1-0.6-0.2-0.7c-0.2-0.1-0.5-0.2-0.8-0.2h-1.4V129.5
		L25.4,129.5z M25.4,132.1h1.5c0.3,0,0.7-0.1,0.9-0.2c0.2-0.1,0.3-0.3,0.3-0.7c0-0.6-0.5-0.8-1.2-0.8h-1.5V132.1z"/>
	<path fill="#F2F2F2" d="M35,127v0.9h-3.2v1.6h2.8v0.9h-2.8v1.6h3.3v1H31v-6.1L35,127L35,127z"/>
	<path fill="#F2F2F2" d="M39.2,127.9v5.1h-1v-5.1h-1.8v-1h4.5v1H39.2z"/>
	<path fill="#F2F2F2" d="M43.1,131.7l-0.6,1.4h-1.1l2.6-6h1.1l2.6,6h-1.1l-0.6-1.4H43.1z M45.6,130.8l-1.1-2.5l-1.1,2.5H45.6z"/>
	<path fill="#F2F2F2" d="M54.7,133h-1.1l-2.4-6.1h1.1l1.8,4.5l1.8-4.5h1.1L54.7,133z"/>
	<path fill="#F2F2F2" d="M60.8,129.3c0.2-0.2,0.2-0.5,0.2-0.8c0-0.2-0.1-0.5-0.2-0.7s-0.5-0.2-0.7-0.2c-0.5,0-0.9,0.2-1.1,0.8
		l-0.8-0.3c0.2-0.5,0.6-0.7,0.9-0.9c0.3-0.2,0.8-0.3,1.1-0.3c0.5,0,1,0.1,1.2,0.5c0.3,0.3,0.6,0.8,0.6,1.2c0,0.3-0.1,0.7-0.2,0.9
		c-0.1,0.3-0.5,0.7-0.9,1.1l-1.4,1.4h2.6v1h-3.9V132l1.7-1.8C60.4,130,60.6,129.6,60.8,129.3z"/>
</g>
</svg>
