<?xml version="1.0" encoding="utf-8"?>
<!-- Generator: Adobe Illustrator 18.0.0, SVG Export Plug-In . SVG Version: 6.00 Build 0)  -->
<!DOCTYPE svg PUBLIC "-//W3C//DTD SVG 1.1//EN" "http://www.w3.org/Graphics/SVG/1.1/DTD/svg11.dtd">
<svg version="1.1" id="Layer_1" xmlns="http://www.w3.org/2000/svg" xmlns:xlink="http://www.w3.org/1999/xlink" x="0px" y="0px"
	 viewBox="78.8 22.3 37.8 39.1" enable-background="new 78.8 22.3 37.8 39.1" xml:space="preserve">
<g>
	<g enable-background="new    ">
		<path fill="#F3F3F3" d="M97.7,32.3c-0.5,0-0.9,0.1-1.3,0.3c-0.3,0.2-0.5,0.6-0.5,1c0,0.4,0.2,0.8,0.5,1c0.3,0.2,1,0.5,2.1,0.7
			c1.1,0.3,1.9,0.6,2.4,1.1c0.6,0.5,0.8,1.2,0.8,2.1c0,0.9-0.4,1.7-1,2.3c-0.7,0.6-1.6,0.9-2.7,0.9c-1.7,0-3.1-0.6-4.3-1.7l1.1-1.4
			c1.1,0.9,2.2,1.4,3.3,1.4c0.6,0,1-0.1,1.3-0.4c0.3-0.2,0.5-0.6,0.5-1c0-0.4-0.2-0.7-0.5-1c-0.3-0.3-0.9-0.4-1.6-0.6
			c-0.8-0.2-1.3-0.4-1.8-0.5c-0.4-0.2-0.7-0.4-1.1-0.6c-0.6-0.4-0.9-1.2-0.9-2.2c0-1,0.4-1.8,1.1-2.3c0.7-0.6,1.6-0.8,2.6-0.8
			c0.7,0,1.3,0.1,2,0.4c0.7,0.2,1.2,0.6,1.7,0.9l-0.9,1.4c-0.3-0.3-0.7-0.5-1.3-0.7C98.7,32.5,98.2,32.3,97.7,32.3z"/>
	</g>
	<rect x="84.9" y="23.3" fill="none" stroke="#F3F3F3" stroke-width="2" stroke-miterlimit="10" width="25.7" height="25.7"/>
</g>
<g>
	<path fill="#F2F2F2" d="M81.4,61.4h-2.6v-6.1h2.3c0.5,0,0.8,0,1.1,0.1c0.3,0.1,0.6,0.2,0.7,0.5c0.2,0.3,0.5,0.7,0.5,1.1
		c0,0.5-0.1,0.9-0.5,1.1c-0.1,0.1-0.2,0.1-0.2,0.1s-0.1,0-0.2,0.1c0.3,0.1,0.7,0.2,0.9,0.6c0.2,0.2,0.3,0.6,0.3,1s-0.1,0.8-0.5,1.1
		C82.6,61.3,82.1,61.4,81.4,61.4z M79.8,57.9h1.2c0.8,0,1.1-0.2,1.1-0.8c0-0.3-0.1-0.6-0.2-0.7c-0.2-0.1-0.5-0.2-0.8-0.2h-1.4V57.9
		L79.8,57.9z M79.8,60.5h1.5c0.3,0,0.7-0.1,0.9-0.2s0.3-0.3,0.3-0.7c0-0.6-0.5-0.8-1.2-0.8h-1.5V60.5z"/>
	<path fill="#F2F2F2" d="M89.4,55.4v0.9h-3.2v1.6h2.8v0.9h-2.8v1.6h3.3v1h-4.2v-6.1L89.4,55.4L89.4,55.4z"/>
	<path fill="#F2F2F2" d="M93.6,56.3v5.1h-1v-5.1h-1.8v-1h4.5v1H93.6z"/>
	<path fill="#F2F2F2" d="M97.5,60L97,61.4h-1.1l2.6-6h1.1l2.6,6H101l-0.6-1.4H97.5z M100,59.1l-1.1-2.5l-1.1,2.5H100z"/>
	<path fill="#F2F2F2" d="M109.1,61.4H108l-2.4-6.1h1.1l1.8,4.5l1.8-4.5h1.1L109.1,61.4z"/>
	<path fill="#F2F2F2" d="M115.2,57.7c0.2-0.2,0.2-0.5,0.2-0.8c0-0.2-0.1-0.5-0.2-0.7c-0.1-0.2-0.5-0.2-0.7-0.2
		c-0.5,0-0.9,0.2-1.1,0.8l-0.8-0.3c0.2-0.5,0.6-0.7,0.9-0.9c0.3-0.2,0.8-0.3,1.1-0.3c0.5,0,1,0.1,1.2,0.5c0.3,0.3,0.6,0.8,0.6,1.2
		c0,0.3-0.1,0.7-0.2,0.9c-0.1,0.3-0.5,0.7-0.9,1.1l-1.4,1.4h2.6v1h-3.9v-0.9l1.7-1.8C114.8,58.3,115,58,115.2,57.7z"/>
</g>
</svg>
