<?xml version="1.0" encoding="utf-8"?>
<!-- Generator: Adobe Illustrator 18.0.0, SVG Export Plug-In . SVG Version: 6.00 Build 0)  -->
<!DOCTYPE svg PUBLIC "-//W3C//DTD SVG 1.1//EN" "http://www.w3.org/Graphics/SVG/1.1/DTD/svg11.dtd">
<svg version="1.1" id="Layer_1" xmlns="http://www.w3.org/2000/svg" xmlns:xlink="http://www.w3.org/1999/xlink" x="0px" y="0px"
	 viewBox="-1.9 12 103.8 62.5" enable-background="new -1.9 12 103.8 62.5" xml:space="preserve">
<path fill="none" stroke="#82BBE6" stroke-width="5" stroke-linejoin="round" stroke-miterlimit="10" d="M49.8,72H74
	c0,0,0-9.6,0-14.3c0-1.6-9.6-6.4-17.5-9.6v-6.4c0,0,3.2-1,3.2-8c2.2,0,3.2-6.4,0-6.4c0-0.6,2.6-4.2,1.6-8c-1.6-6.4-17.5-6.4-19.1,0
	c-6.7-1.3-1.6,7.1-1.6,8c-3.2,0-2.2,6.4,0,6.4c0,7.1,3.2,8,3.2,8v6.4c-8,3.2-17.5,8-17.5,9.6c0,3.2,0,14.3,0,14.3H49.8z"/>
<path fill="none" stroke="#82BBE6" stroke-width="5" stroke-linecap="round" stroke-linejoin="round" stroke-miterlimit="10" d="
	M81.9,72h17.5c0,0,0-10.6,0-14.3c0-1.6-8-3.9-14.3-6.4v-4.8c0,0,3.2-1,3.2-6.4c1.9,0,2.6-6.4,0-6.4c0-0.6,2.6-3.5,1.6-6.4
	c-1.6-4.8-14.3-4.8-15.9,0c-5.5-1-1.6,5.8-1.6,6.4c-2.6,0-1.9,6.4,0,6.4c0,5.5,3.2,6.4,3.2,6.4v3.2"/>
<path fill="none" stroke="#82BBE6" stroke-width="5" stroke-linecap="round" stroke-linejoin="round" stroke-miterlimit="10" d="
	M18.2,72H0.6c0,0,0-10.6,0-14.3c0-1.6,8-3.9,14.3-6.4v-4.8c0,0-3.2-1-3.2-6.4c-1.9,0-2.6-6.4,0-6.4c0-0.6-2.6-3.5-1.6-6.4
	c1.6-4.7,14.4-4.7,16,0.1c5.5-1,1.6,5.8,1.6,6.4c2.6,0,1.9,6.4,0,6.4c0,5.5-3.2,6.4-3.2,6.4v3.2"/>
</svg>
