<?xml version="1.0" encoding="utf-8"?>
<!-- Generator: Adobe Illustrator 18.0.0, SVG Export Plug-In . SVG Version: 6.00 Build 0)  -->
<!DOCTYPE svg PUBLIC "-//W3C//DTD SVG 1.1//EN" "http://www.w3.org/Graphics/SVG/1.1/DTD/svg11.dtd">
<svg version="1.1" id="Layer_1" xmlns="http://www.w3.org/2000/svg" xmlns:xlink="http://www.w3.org/1999/xlink" x="0px" y="0px"
	 viewBox="54 0 143.9 144" enable-background="new 54 0 143.9 144" xml:space="preserve">
<path fill="#668BC8" d="M126,0.8C86.4,0.8,54.8,32.4,54.8,72s31.6,71.2,71.2,71.2s71.2-31.6,71.2-71.2S165.6,0.8,126,0.8z
	 M137.1,117.1c0,1.6-0.8,2.4-2.4,2.4h-15.8c-1.6,0-2.4-0.8-2.4-2.4v-15.8c0-1.6,0.8-2.4,2.4-2.4h15.8c1.6,0,2.4,0.8,2.4,2.4V117.1z
	 M151.3,63.3c-1.6,2.4-4,4.7-8.7,7.9l-4,3.2c-1.6,1.6-2.9,3.2-3.2,4.7c-0.2,0.9-0.8,2.4-0.8,5.5c0,1.6,0.8,8.7,2.2,8.7h-18.2
	c-2.7,0.4-3.8-4.7-3.8-6.3v-2.2c0-0.1,0-0.2,0-0.3c0.5-6.7,2.3-11,3.1-13.3c0.8-2.4,4-5.5,7.9-8.7l4.9-3.9c0.6-0.7,1.1-1.4,1.7-2.1
	c0.7-1.4,1.4-2.9,1.4-4.3c0-2.4-0.8-4-1.6-6.3s-3.2-3.2-7.1-3.2c-3.2,0-5.5,0.8-7.1,3.2c-0.8,2.4-1.6,4.7-1.6,7.1
	c0,1.3-1.1,2.4-2.5,2.4H98.3c0,0-0.8,0-1.6-0.8c0,0-0.8-0.8-0.8-1.6c0.8-11.1,4.7-19,11.9-23.7c4.7-3.2,10.3-4,17.4-4
	c8.7,0,15.8,2.4,21.4,6.3c6.3,4,8.7,11.1,8.7,19C155.3,55.4,154.5,60.1,151.3,63.3z"/>
</svg>
